<?xml version="1.0" standalone="no"?>
<!DOCTYPE svg PUBLIC "-//W3C//DTD SVG 20010904//EN"
 "http://www.w3.org/TR/2001/REC-SVG-20010904/DTD/svg10.dtd">
<svg version="1.0" xmlns="http://www.w3.org/2000/svg"
 width="1024.000000pt" height="1024.000000pt" viewBox="0 0 1024.000000 1024.000000"
 preserveAspectRatio="xMidYMid meet">

<g transform="translate(0.000000,1024.000000) scale(0.100000,-0.100000)"
fill="#000000" stroke="none">
<path d="M0 5120 l0 -5120 5120 0 5120 0 0 5120 0 5120 -5120 0 -5120 0 0
-5120z m8118 3444 c43 -4 74 -14 101 -33 62 -41 151 -127 151 -145 0 -9 -3
-15 -7 -15 -22 4 -41 -3 -59 -18 -11 -10 -56 -36 -102 -58 -45 -22 -82 -44
-82 -48 0 -5 -4 -6 -9 -3 -30 19 -33 -27 -33 -504 -1 -295 -5 -483 -11 -487
-5 -3 -4 -9 4 -13 10 -7 10 -12 1 -22 -6 -8 -8 -24 -5 -37 4 -14 1 -26 -8 -32
-11 -7 -10 -9 4 -9 19 0 20 -2 11 -24 -3 -9 -10 -13 -15 -10 -5 3 -9 -7 -9
-22 0 -27 1 -27 15 -8 13 17 14 18 15 1 0 -10 -7 -20 -15 -23 -8 -4 -15 -17
-15 -30 0 -25 15 -33 23 -11 4 9 6 9 6 -1 1 -7 -6 -15 -14 -18 -8 -4 -15 -10
-15 -15 0 -4 6 -6 14 -3 12 4 14 -2 11 -27 -3 -18 -9 -35 -14 -38 -13 -8 -10
-84 3 -93 7 -5 7 -8 -1 -8 -7 0 -13 -7 -13 -15 0 -8 4 -15 10 -15 6 0 6 -9 0
-26 -14 -36 -12 -44 8 -38 16 5 16 5 0 -8 -12 -11 -16 -30 -16 -83 1 -49 3
-64 10 -50 7 17 8 16 4 -5 -15 -83 -18 -130 -7 -130 8 0 9 -5 1 -19 -15 -29
-12 -41 8 -35 14 5 15 4 2 -5 -12 -8 -15 -39 -17 -153 -3 -157 -6 -2287 -3
-2303 1 -5 1 -61 1 -122 0 -62 4 -115 10 -118 5 -4 6 -12 2 -18 -13 -19 -12
-137 1 -137 6 0 4 -5 -4 -10 -9 -6 -10 -10 -3 -10 8 0 8 -7 0 -30 -9 -24 -9
-33 0 -38 7 -5 10 -19 7 -32 -3 -14 -7 -114 -9 -223 -4 -150 -2 -196 7 -191 8
5 9 2 3 -12 -5 -10 -10 -116 -12 -234 -4 -298 -16 -427 -41 -453 -26 -26 -135
-34 -432 -32 -176 1 -231 4 -250 16 -30 16 -125 117 -118 124 2 3 -15 25 -39
50 -43 45 -53 65 -32 65 19 0 71 -59 63 -72 -5 -8 -2 -9 12 -4 10 4 15 4 12 0
-4 -4 1 -18 12 -32 11 -13 17 -28 14 -33 -3 -5 2 -6 10 -3 9 3 16 1 16 -5 0
-6 7 -11 15 -11 8 0 15 -6 15 -12 0 -12 13 -14 100 -17 14 -1 34 1 45 3 11 3
23 5 28 5 4 1 7 5 7 11 0 5 -3 9 -7 9 -24 -4 -25 4 -3 17 l25 15 -25 -7 c-36
-10 -141 -11 -131 -1 5 5 31 20 57 33 32 15 39 21 21 17 -19 -4 -27 -2 -25 7
2 7 -4 15 -12 17 -13 4 -13 3 0 -6 13 -9 13 -11 -2 -11 -9 0 -20 -5 -24 -12
-5 -8 0 -9 16 -5 15 4 20 3 13 -4 -7 -7 -26 -6 -58 2 -46 12 -47 12 -24 25 29
16 21 18 -15 4 -46 -17 -28 7 22 29 l47 21 -40 -5 c-22 -2 -56 -7 -75 -10
l-35 -6 38 21 c21 11 41 19 45 16 4 -2 13 2 20 10 15 16 4 18 -32 4 -40 -15
-31 -1 10 16 44 18 38 31 -7 15 -55 -19 -44 -4 13 17 68 26 191 84 158 75 -14
-4 -35 -7 -47 -6 -12 0 -21 -4 -20 -9 1 -6 -25 -20 -58 -32 -33 -12 -70 -27
-83 -34 -13 -8 -28 -11 -35 -9 -7 3 -4 8 8 12 11 4 30 12 43 18 22 10 22 12 5
18 -15 6 -14 8 7 10 14 1 31 2 37 2 7 -1 11 3 8 7 -2 4 17 14 43 23 26 9 38
16 26 16 -12 1 -39 -5 -60 -12 -59 -21 -96 -29 -90 -19 2 4 28 14 56 22 28 8
53 18 56 22 3 4 16 8 30 8 13 0 24 5 24 11 0 6 -7 8 -17 5 -78 -30 -110 -36
-148 -27 l-40 9 40 2 c22 1 34 4 27 7 -16 6 -5 23 16 23 9 1 31 12 47 26 17
15 22 24 13 20 -12 -3 -18 0 -18 9 0 12 -6 12 -41 0 -63 -23 -70 -17 -14 11
28 13 42 22 32 19 -25 -7 -78 6 -71 17 3 5 19 6 35 3 19 -4 29 -3 29 5 0 7 -7
10 -15 6 -30 -11 -14 15 18 30 26 12 27 14 7 10 -87 -16 -95 -16 -47 1 26 9
47 21 47 26 0 5 -8 6 -17 1 -32 -13 -93 -17 -93 -5 0 6 8 11 18 11 9 0 28 10
42 21 l25 20 -32 -15 c-18 -9 -41 -16 -52 -16 -10 0 -21 -6 -24 -12 -3 -10 -7
-10 -17 -1 -10 9 -3 15 36 24 27 7 42 15 35 17 -9 3 -4 12 15 29 16 13 23 22
17 18 -7 -3 -13 -2 -13 2 0 5 -13 14 -30 20 -33 12 -40 33 -12 33 9 1 28 8 42
16 20 12 21 14 5 11 -11 -3 -29 -8 -40 -12 -20 -7 -20 -6 -1 9 28 23 7 20 -29
-4 -16 -11 -39 -20 -50 -19 -13 0 -6 7 22 20 29 13 40 24 37 34 -4 10 -14 13
-29 9 -13 -3 -25 -1 -29 4 -7 11 70 25 87 16 7 -4 8 -3 4 1 -4 5 3 15 15 22
22 12 22 12 -7 8 -16 -2 -39 -7 -50 -11 -16 -5 -18 -4 -8 6 20 22 -11 43 -55
36 -32 -5 -34 -4 -12 5 14 6 39 8 55 5 17 -2 24 -2 17 1 -6 2 -10 8 -8 12 3 4
0 8 -7 8 -7 1 -36 7 -65 15 -52 14 -60 28 -17 28 13 0 29 7 36 17 13 15 12 15
-9 4 -13 -7 -26 -10 -29 -8 -2 3 13 13 34 22 21 9 49 22 62 29 l24 11 -22 3
c-12 2 -34 -4 -48 -13 -14 -10 -22 -12 -18 -5 6 10 1 11 -19 6 -25 -6 -26 -5
-16 13 5 11 18 24 27 30 14 7 8 11 -28 19 -40 9 -41 10 -11 11 17 1 32 5 32
10 0 6 12 6 32 0 42 -12 51 -11 43 1 -3 6 2 10 12 11 11 0 13 3 5 6 -7 3 -18
1 -25 -5 -7 -5 -21 -6 -32 -1 -15 6 -16 8 -4 8 9 1 23 8 30 18 13 15 11 16
-13 11 -35 -7 -37 8 -3 16 14 4 25 14 25 22 0 13 -7 15 -30 11 -17 -4 -30 -2
-30 3 0 6 9 10 21 10 11 0 18 4 15 9 -3 5 -15 7 -26 4 -12 -3 -20 0 -20 7 0 7
14 10 41 8 27 -2 44 1 46 10 3 8 -10 12 -48 12 -29 0 -50 3 -46 6 3 3 22 6 41
6 20 0 36 4 36 9 0 5 -20 9 -45 9 -25 0 -45 5 -45 10 0 6 8 10 18 11 12 0 13
2 3 6 -11 5 -11 7 0 14 9 6 1 7 -21 3 -26 -5 -32 -4 -24 5 6 6 28 14 50 17 29
4 35 3 24 -5 -13 -10 -13 -11 0 -10 8 0 31 7 50 14 25 10 29 14 15 15 l-20 1
20 10 c18 8 18 9 -4 5 -63 -12 -133 52 -371 339 -41 50 -124 146 -183 215 -60
69 -146 167 -190 219 -45 52 -122 140 -172 196 -49 56 -133 150 -185 210 -52
60 -113 129 -136 154 -22 25 -67 78 -99 116 -59 71 -149 174 -240 274 -61 68
-59 65 -120 137 -27 33 -72 82 -98 109 -27 28 -71 78 -99 112 -27 34 -62 73
-78 87 -17 14 -30 29 -30 35 0 12 -48 46 -55 39 -2 -2 8 -17 23 -33 25 -28
227 -264 486 -567 59 -70 106 -128 104 -130 -2 -2 15 -21 38 -43 22 -22 67
-74 99 -115 33 -41 64 -79 70 -83 6 -5 3 -7 -7 -3 -30 9 -19 -8 14 -24 18 -8
34 -21 36 -29 3 -9 0 -11 -9 -7 -8 4 -5 0 6 -9 20 -17 20 -17 -5 -10 -14 4
-45 20 -70 35 -40 25 -193 80 -223 80 -26 0 14 -20 103 -50 103 -35 135 -53
73 -39 -192 41 -222 50 -199 59 18 6 18 7 2 13 -23 9 -51 9 -43 0 4 -3 1 -13
-6 -21 -10 -13 -9 -14 1 -8 7 4 18 3 25 -2 16 -12 99 -32 109 -26 4 3 8 0 8
-5 0 -6 8 -11 18 -11 9 0 24 -5 32 -11 11 -8 6 -9 -20 -3 -19 3 -49 8 -66 9
-17 2 -47 6 -65 10 -19 4 -32 5 -29 2 11 -11 94 -36 103 -30 6 3 7 1 3 -5 -4
-7 9 -15 34 -22 22 -6 40 -13 40 -16 0 -6 -34 0 -62 11 -8 3 -27 -6 -42 -20
-15 -14 -23 -25 -19 -26 4 0 -1 -4 -12 -9 -34 -14 -92 -11 -167 10 -103 28
-107 24 -10 -10 96 -33 136 -56 126 -72 -5 -7 0 -9 14 -6 12 4 20 3 17 -2 -4
-7 60 -30 128 -46 15 -3 26 -8 24 -11 -7 -6 -195 43 -270 72 -37 13 -67 21
-67 17 0 -5 -15 -6 -32 -4 -18 3 -30 2 -27 -2 3 -3 23 -7 45 -9 54 -3 283 -79
289 -96 3 -9 0 -11 -10 -7 -8 3 -22 9 -32 13 -11 4 -14 3 -9 -5 4 -7 2 -12 -5
-12 -7 0 -4 -7 7 -16 19 -15 19 -16 -1 -9 -98 33 -145 43 -111 23 27 -15 118
-38 128 -32 4 3 10 -1 13 -8 3 -8 18 -15 33 -16 32 -2 135 -42 128 -49 -4 -5
-57 11 -110 33 -43 17 -2 -18 47 -42 58 -27 25 -22 -38 6 -59 26 -105 40 -134
40 -14 0 -53 11 -85 25 -76 31 -87 24 -15 -10 47 -22 45 -30 -3 -10 -10 4 -18
3 -18 -3 0 -13 51 -22 80 -15 14 4 21 2 17 -3 -3 -6 28 -23 69 -38 84 -31 92
-43 18 -25 -69 15 -146 21 -139 9 3 -6 13 -10 20 -10 13 0 142 -64 155 -76 2
-3 -8 -1 -23 5 -15 6 -27 7 -27 1 0 -5 10 -12 23 -15 12 -4 38 -17 57 -28 19
-12 44 -23 55 -25 11 -1 24 -7 29 -12 11 -11 -49 3 -94 22 -19 8 -60 23 -90
33 -30 10 -61 20 -69 23 -9 3 -12 1 -8 -5 4 -6 45 -25 91 -41 46 -17 99 -40
117 -51 40 -25 39 -25 -25 -6 -66 20 -88 20 -61 -1 19 -15 18 -16 -15 -10
l-35 6 30 -15 c24 -11 26 -14 10 -15 -12 0 5 -12 40 -29 l60 -29 -50 5 c-46 4
-49 3 -30 -11 11 -9 35 -18 52 -22 18 -3 31 -10 28 -14 -3 -5 -19 -5 -35 0
-19 5 -28 5 -25 -1 4 -5 24 -12 46 -15 39 -7 65 -24 35 -24 -23 0 -20 -28 4
-35 11 -4 18 -11 14 -16 -3 -6 3 -13 15 -16 12 -3 21 -9 21 -13 0 -4 12 -11
28 -15 19 -5 22 -9 12 -13 -9 -3 14 -16 55 -29 l70 -24 -59 7 c-45 4 -57 3
-50 -7 5 -9 2 -11 -9 -6 -30 11 -18 -3 16 -18 17 -8 23 -13 12 -10 -14 3 -10
-4 15 -25 19 -17 40 -30 46 -30 7 0 14 -7 17 -14 4 -10 1 -13 -9 -9 -7 3 -14
1 -14 -4 0 -11 52 -42 88 -53 l27 -8 -25 -1 c-20 -1 -22 -3 -10 -11 11 -7 12
-10 2 -10 -18 0 42 -50 59 -50 8 0 25 -9 39 -20 l25 -20 -28 10 c-25 9 -27 8
-18 -9 6 -10 39 -28 73 -40 35 -13 71 -27 80 -32 10 -5 28 -9 40 -10 13 0 17
-3 10 -6 -12 -4 -104 17 -150 35 -25 9 3 -32 33 -48 14 -7 24 -19 21 -26 -2
-6 7 -17 21 -23 13 -6 23 -17 20 -24 -2 -6 8 -21 22 -32 14 -11 26 -26 26 -33
0 -7 14 -21 30 -32 17 -11 24 -20 15 -20 -10 -1 -6 -9 13 -25 16 -14 25 -30
21 -37 -4 -6 -3 -8 2 -5 6 3 16 2 24 -4 12 -7 12 -9 2 -9 -8 0 5 -18 27 -41
23 -22 39 -44 36 -49 -3 -4 11 -18 30 -30 19 -12 35 -27 35 -34 0 -22 33 -43
100 -65 57 -18 46 -20 -30 -3 -24 5 -24 4 -7 -15 9 -11 17 -25 17 -32 0 -7 3
-10 8 -8 4 2 18 -7 31 -20 20 -19 21 -23 7 -23 -15 0 -101 79 -151 141 -11 13
-38 44 -60 68 -24 26 -33 42 -22 38 11 -4 16 -3 12 3 -3 6 -12 10 -19 10 -7 0
-32 24 -57 53 -62 76 -295 342 -353 404 -27 29 -46 53 -42 53 4 0 1 6 -6 13
-7 8 -38 43 -68 78 -30 35 -81 91 -112 125 -32 33 -58 66 -58 72 0 5 -3 12 -7
14 -8 3 -132 146 -233 268 -61 73 -182 213 -196 225 -6 6 -18 20 -26 33 -8 12
-40 50 -70 85 -148 167 -317 364 -434 507 -43 52 -83 100 -89 105 -10 8 -118
137 -240 284 -11 14 -34 41 -51 60 -17 20 -91 108 -164 196 -74 88 -153 180
-176 205 -23 25 -76 86 -116 136 -41 50 -99 119 -129 154 -113 130 -209 240
-226 258 -24 26 -73 81 -153 171 -129 147 -266 296 -298 327 -65 63 -200 58
-267 -10 -30 -30 -31 -34 -33 -124 -1 -58 2 -91 8 -87 12 7 14 -8 3 -19 -11
-11 -13 -76 -2 -76 6 0 7 -6 2 -12 -4 -7 -8 -48 -8 -90 -1 -58 2 -78 12 -78
10 0 13 34 11 158 -1 158 11 250 36 271 10 9 14 -59 16 -337 2 -191 3 -380 3
-420 -1 -40 2 -70 6 -68 4 3 6 -10 4 -27 -2 -18 -3 -57 -2 -87 0 -30 1 -59 0
-65 -4 -47 -5 -145 -1 -145 3 0 4 -80 3 -178 -2 -97 -3 -196 -3 -220 0 -23 2
-47 5 -52 4 -6 2 -10 -2 -10 -9 0 -8 -194 1 -209 4 -5 2 -12 -4 -16 -5 -3 -10
-13 -10 -21 0 -9 5 -12 12 -8 8 5 9 2 4 -12 -13 -31 -15 -65 -4 -58 12 7 7
-48 -7 -80 -6 -14 -5 -17 4 -11 10 6 12 0 7 -22 -4 -17 -9 -219 -12 -449 -2
-230 -6 -476 -8 -547 -3 -95 -1 -125 7 -120 9 5 9 3 1 -8 -8 -10 -11 -88 -8
-264 3 -253 4 -279 17 -291 4 -4 7 -16 7 -26 0 -10 8 -22 18 -25 9 -4 22 -13
27 -20 6 -7 29 -14 53 -15 24 -1 45 -5 48 -10 8 -13 26 -9 18 5 -4 6 2 4 14
-6 12 -11 26 -16 33 -11 20 12 58 14 64 3 4 -5 16 -9 28 -9 16 0 18 3 9 12 -7
7 -12 17 -12 22 0 6 5 5 12 -2 7 -7 20 -12 30 -12 10 0 18 -4 18 -10 0 -5 5
-10 11 -10 5 0 7 4 4 10 -3 5 0 16 7 24 11 12 22 6 75 -46 62 -61 62 -62 41
-79 -11 -10 -30 -21 -42 -25 -11 -4 -33 -15 -47 -25 -14 -10 -28 -16 -31 -13
-3 2 -11 -2 -18 -11 -7 -8 -19 -15 -26 -15 -23 0 -42 -42 -43 -92 0 -27 -6
-58 -13 -70 -16 -30 -19 -48 -7 -48 6 0 7 -6 2 -12 -10 -17 -11 -108 -1 -102
12 8 9 -11 -4 -24 -9 -9 -9 -12 1 -12 7 0 9 -5 5 -11 -12 -20 -7 -284 7 -338
7 -28 10 -54 6 -58 -4 -3 -33 2 -65 11 -51 17 -108 19 -536 22 -399 3 -482 6
-501 18 -16 10 -25 32 -33 73 -9 42 -11 846 -10 2962 l1 2904 -20 8 c-11 4
-23 14 -26 23 -4 9 -13 16 -21 16 -8 0 -16 3 -18 8 -1 4 -39 34 -83 67 -44 33
-91 70 -105 83 -14 12 -28 22 -32 22 -5 0 -8 5 -8 12 0 6 -7 19 -16 29 -9 10
-14 24 -11 32 7 20 84 34 147 27 l55 -6 -52 -8 c-29 -4 -56 -5 -62 -2 -5 4
-12 2 -16 -4 -3 -5 5 -14 18 -19 14 -6 26 -14 28 -19 2 -5 38 -30 79 -57 41
-27 77 -51 80 -54 14 -17 71 -51 85 -51 8 0 15 -5 15 -11 0 -6 6 -9 14 -6 7 3
19 0 25 -6 12 -12 160 -13 721 -7 210 3 267 6 275 17 11 15 75 8 75 -8 0 -5 4
-9 10 -9 5 0 9 4 7 9 -1 5 2 9 8 9 8 0 27 34 29 54 1 3 4 9 8 13 4 4 4 14 1
23 -4 12 3 9 23 -8 17 -15 23 -17 14 -6 -12 16 -12 20 -2 24 10 3 7 11 -9 28
-12 13 -18 24 -12 24 9 0 303 -316 413 -445 24 -27 94 -106 155 -175 62 -69
224 -253 361 -410 137 -157 289 -330 339 -385 147 -163 227 -255 222 -255 -2
0 -48 48 -102 108 -130 141 -306 332 -375 405 -30 32 -62 59 -72 60 -9 2 -24
9 -34 17 -18 14 -18 14 0 -7 10 -12 23 -21 29 -20 6 1 18 -12 26 -30 9 -17 27
-44 41 -60 44 -50 53 -63 43 -63 -4 0 -23 14 -41 30 -55 50 -54 39 2 -30 12
-14 1 -7 -24 15 -53 48 -35 20 34 -52 28 -29 45 -53 39 -53 -6 0 -40 32 -74
70 -34 39 -64 68 -67 66 -3 -4 45 -75 79 -115 10 -11 8 -12 -10 -6 -14 4 -21
2 -21 -7 0 -7 -9 -2 -20 12 -15 19 -22 22 -31 13 -9 -9 5 -33 64 -105 42 -51
89 -107 104 -124 15 -16 41 -47 56 -67 16 -21 61 -70 101 -110 39 -40 91 -97
114 -128 23 -31 56 -66 72 -79 16 -12 27 -27 24 -31 -3 -5 0 -9 6 -9 18 0 87
-60 124 -107 27 -34 35 -40 40 -27 4 9 1 24 -5 33 -7 9 16 -12 51 -47 45 -45
65 -60 71 -50 5 7 2 19 -7 29 -31 35 -11 31 26 -6 22 -21 40 -33 40 -25 0 17
11 7 14 -13 3 -23 52 -83 88 -108 28 -19 31 -20 18 -4 -8 11 -35 39 -59 62
-25 24 -39 43 -32 43 19 0 131 -124 119 -131 -12 -8 -3 -22 55 -89 20 -24 37
-39 37 -33 0 5 -9 18 -21 29 -11 10 -25 28 -31 39 -6 11 8 2 31 -20 26 -25 39
-45 36 -56 -3 -9 2 -22 12 -30 17 -13 17 -13 3 5 -12 15 -12 20 -2 23 6 3 10
9 6 14 -3 5 0 9 6 9 6 0 10 -6 9 -12 -3 -26 2 -35 32 -57 18 -13 28 -17 24
-10 -8 12 -6 12 8 0 9 -7 14 -17 11 -23 -7 -11 15 -40 26 -33 4 3 23 -9 41
-26 37 -34 19 -29 -20 5 -23 20 -23 20 -13 1 17 -31 58 -75 71 -75 6 0 33 -22
60 -50 27 -27 52 -50 55 -50 11 0 -10 33 -42 65 -16 17 -53 64 -82 105 -51 72
-88 115 -188 225 -42 45 -59 75 -45 75 12 0 70 -56 127 -124 33 -40 140 -162
236 -272 96 -109 228 -260 292 -334 64 -74 161 -185 215 -246 54 -61 188 -214
298 -340 273 -314 304 -347 337 -361 l28 -12 1 107 c1 83 3 97 9 62 4 -25 8
-83 9 -130 1 -54 7 -90 15 -100 48 -54 148 -320 121 -320 -3 0 -20 30 -37 67
-98 217 -104 228 -203 335 -60 65 -64 68 -35 25 34 -51 35 -72 2 -39 -11 11
-18 23 -16 25 3 3 1 8 -4 11 -17 10 -7 -22 13 -44 10 -11 24 -20 31 -20 8 0
11 -6 8 -15 -4 -8 1 -17 9 -21 8 -3 17 -17 20 -32 3 -15 9 -35 12 -44 4 -11 3
-18 -4 -18 -6 0 -16 10 -21 23 -5 12 -20 36 -34 52 -24 29 -25 29 -43 12 -10
-10 -13 -17 -8 -16 25 4 36 -3 51 -33 l16 -33 -25 29 c-24 29 -76 49 -61 24 9
-16 -35 20 -57 46 -10 11 -15 25 -12 32 2 7 0 15 -5 18 -16 9 -24 -25 -10 -43
7 -9 1 -6 -13 7 -23 20 -49 29 -49 17 0 -15 53 -87 75 -101 14 -9 23 -20 20
-24 -2 -4 10 -25 28 -46 18 -21 44 -55 57 -74 22 -31 110 -143 176 -225 32
-38 116 -105 125 -99 4 2 5 29 2 58 -8 73 -1 91 29 74 24 -13 30 -15 53 -17 8
0 22 -24 32 -52 l18 -50 7 43 c3 24 7 693 8 1488 1 795 2 1543 2 1663 1 272 0
275 -114 348 -116 74 -113 62 -114 418 -1 279 -2 294 -20 305 -13 8 -19 21
-19 45 1 26 -4 35 -24 45 -14 6 -35 20 -47 31 -12 11 -44 31 -71 45 -26 14
-59 34 -73 45 -14 11 -42 29 -63 40 l-36 19 -26 -24 c-34 -31 -32 -14 5 43 17
26 30 52 30 57 0 6 1 10 3 10 1 0 19 6 40 14 30 10 179 13 695 15 361 1 685
-2 720 -5z m-5175 -21 c-166 -2 -440 -2 -610 0 -169 1 -33 2 302 2 336 0 474
-1 308 -2z m365 -13 c45 -28 40 -34 -8 -9 -22 12 -40 23 -40 25 0 9 16 3 48
-16z m63 -97 c13 -16 12 -17 -3 -4 -10 7 -18 15 -18 17 0 8 8 3 21 -13z m-85
-82 c-4 -5 0 -12 6 -15 7 -3 0 -4 -16 -2 -38 3 -47 26 -11 26 14 0 24 -4 21
-9z m1090 -1252 c19 -22 19 -22 -3 -8 -13 8 -23 17 -23 21 0 12 6 9 26 -13z
m137 -147 c19 -20 23 -29 13 -29 -8 0 -14 3 -13 7 1 4 -9 17 -23 28 -14 12
-20 21 -14 22 5 0 22 -13 37 -28z m98 -110 c58 -61 93 -116 44 -71 -41 39
-117 129 -108 129 4 0 33 -26 64 -58z m3465 31 c-10 -10 -19 5 -10 18 6 11 8
11 12 0 2 -7 1 -15 -2 -18z m-3461 -83 c21 -22 37 -40 34 -40 -3 0 -23 18 -44
40 -21 22 -37 40 -34 40 3 0 23 -18 44 -40z m300 -260 c21 -22 37 -40 34 -40
-3 0 -23 18 -44 40 -21 22 -37 40 -34 40 3 0 23 -18 44 -40z m125 -138 c-6 -2
-19 7 -30 20 -30 36 -23 45 10 13 17 -17 26 -31 20 -33z m126 -44 l29 -33 -35
30 c-19 17 -37 31 -39 33 -2 1 0 2 5 2 6 0 23 -15 40 -32z m59 -48 c10 -11 16
-20 13 -20 -3 0 -13 9 -23 20 -10 11 -16 20 -13 20 3 0 13 -9 23 -20z m140
-88 c-7 -8 -37 14 -66 51 l-33 42 51 -45 c28 -25 50 -46 48 -48z m1812 -1264
c-3 -8 -6 -5 -6 6 -1 11 2 17 5 13 3 -3 4 -12 1 -19z m0 -181 c-2 -23 -3 -1
-3 48 0 50 1 68 3 42 2 -26 2 -67 0 -90z m-250 56 c-3 -10 -5 -4 -5 12 0 17 2
24 5 18 2 -7 2 -21 0 -30z m-1094 1 c50 -14 98 -30 107 -35 24 -14 -35 -4
-112 19 -36 11 -68 18 -71 16 -2 -3 -10 2 -17 11 -16 20 -15 19 93 -11z m243
-1 c-7 -7 -26 7 -26 19 0 6 6 6 15 -2 9 -7 13 -15 11 -17z m-369 -39 c-3 -3
-12 -4 -19 -1 -8 3 -5 6 6 6 11 1 17 -2 13 -5z m13 -36 c10 -6 7 -7 -10 -2
-14 3 -32 11 -40 16 -10 6 -7 7 10 2 14 -3 32 -11 40 -16z m160 6 c39 -7 51
-27 14 -21 -26 3 -43 9 -94 30 -15 7 22 2 80 -9z m255 6 c4 -7 -3 -8 -22 -4
-38 9 -42 14 -10 14 14 0 29 -5 32 -10z m-313 -50 c34 -16 59 -30 53 -30 -20
0 -135 44 -135 52 0 13 15 9 82 -22z m135 4 c-3 -3 -12 -4 -19 -1 -8 3 -5 6 6
6 11 1 17 -2 13 -5z m-172 -63 c3 -5 1 -12 -5 -16 -5 -3 -10 1 -10 9 0 18 6
21 15 7z m1394 -138 c-1 -122 -3 -139 -11 -98 -11 62 -11 76 -4 145 3 30 5 65
6 78 0 12 2 22 5 22 3 0 4 -66 4 -147z m-1414 107 c3 -5 17 -10 31 -10 13 0
24 -4 24 -9 0 -11 -47 1 -77 18 -16 9 -16 10 -1 11 9 0 20 -4 23 -10z m90 -28
c-3 -3 -11 0 -18 7 -9 10 -8 11 6 5 10 -3 15 -9 12 -12z m-125 -60 c18 -8 20
-11 7 -11 -19 -1 -87 25 -87 33 0 5 41 -6 80 -22z m450 -27 c46 -18 28 -18
-35 -1 -30 9 -40 14 -25 14 14 0 41 -6 60 -13z m-291 -31 c10 -9 -35 -3 -49 6
-11 8 -7 9 15 4 17 -4 32 -8 34 -10z m66 6 c3 -6 -1 -7 -9 -4 -18 7 -21 14 -7
14 6 0 13 -4 16 -10z m-125 -10 c18 -12 2 -12 -25 0 -13 6 -15 9 -5 9 8 0 22
-4 30 -9z m-64 -28 c-7 -7 -66 9 -66 18 0 4 16 3 35 -3 19 -6 33 -12 31 -15z
m29 -42 c3 -6 -1 -7 -9 -4 -18 7 -21 14 -7 14 6 0 13 -4 16 -10z m926 -17 c13
-16 12 -17 -3 -4 -10 7 -18 15 -18 17 0 8 8 3 21 -13z m-331 -28 c19 -7 28
-13 20 -13 -8 0 -31 6 -50 13 -19 7 -28 13 -20 13 8 0 31 -6 50 -13z m93 -22
c-7 -2 -19 -2 -25 0 -7 3 -2 5 12 5 14 0 19 -2 13 -5z m-543 -13 c8 -5 11 -10
5 -10 -5 0 -17 5 -25 10 -8 5 -10 10 -5 10 6 0 17 -5 25 -10z m-30 -10 c8 -5
11 -10 5 -10 -5 0 -17 5 -25 10 -8 5 -10 10 -5 10 6 0 17 -5 25 -10z m653 -67
c-7 -2 -21 -2 -30 0 -10 3 -4 5 12 5 17 0 24 -2 18 -5z m-663 -55 c10 -6 7 -7
-10 -2 -14 3 -32 11 -40 16 -10 6 -7 7 10 2 14 -3 32 -11 40 -16z m587 6 c-3
-3 -12 -4 -19 -1 -8 3 -5 6 6 6 11 1 17 -2 13 -5z m40 -10 c-3 -3 -12 -4 -19
-1 -8 3 -5 6 6 6 11 1 17 -2 13 -5z m-527 -19 c46 -18 28 -18 -35 -1 -30 9
-40 14 -25 14 14 0 41 -6 60 -13z m81 0 c43 -18 16 -18 -31 0 -19 7 -28 14
-19 14 9 1 32 -6 50 -14z m553 -4 c3 -4 -6 -6 -19 -3 -14 2 -25 6 -25 8 0 8
39 4 44 -5z m-185 -38 c18 -8 31 -16 29 -18 -4 -4 -118 32 -126 40 -9 9 61 -7
97 -22z m-533 -11 c-7 -7 -46 9 -46 18 0 5 11 4 25 -2 14 -6 23 -13 21 -16z
m79 -12 c7 -12 -2 -12 -30 0 -19 8 -19 9 2 9 12 1 25 -3 28 -9z m591 -8 c-16
-2 -32 0 -37 5 -5 5 7 7 29 4 34 -5 35 -6 8 -9z m101 2 c-3 -3 -12 -4 -19 -1
-8 3 -5 6 6 6 11 1 17 -2 13 -5z m-632 -44 c13 -5 14 -9 5 -9 -8 0 -24 4 -35
9 -13 5 -14 9 -5 9 8 0 24 -4 35 -9z m592 4 c-3 -3 -12 -4 -19 -1 -8 3 -5 6 6
6 11 1 17 -2 13 -5z m-877 -45 c8 -9 32 -36 53 -60 77 -88 152 -173 168 -189
37 -38 276 -319 438 -515 96 -115 195 -235 221 -265 128 -152 214 -257 290
-356 47 -60 93 -118 102 -128 10 -11 15 -22 12 -25 -3 -3 -20 12 -37 34 -18
21 -66 78 -107 125 -41 47 -127 149 -190 225 -270 326 -330 398 -429 516 -58
68 -108 126 -111 129 -9 8 -380 449 -425 505 -35 44 -25 47 15 4z m670 -130
c13 -7 13 -8 0 -8 -8 0 -26 6 -40 15 l-25 15 25 -7 c14 -3 32 -10 40 -15z
m277 -35 c-3 -3 -12 -4 -19 -1 -8 3 -5 6 6 6 11 1 17 -2 13 -5z m306 -111 c-7
-2 -19 -2 -25 0 -7 3 -2 5 12 5 14 0 19 -2 13 -5z m-723 -43 c18 -12 2 -12
-25 0 -13 6 -15 9 -5 9 8 0 22 -4 30 -9z m770 7 c0 -2 -9 -12 -20 -22 -19 -18
-20 -17 -20 3 0 15 6 22 20 22 11 0 20 -2 20 -3z m-50 -18 c0 -11 -27 -12 -34
-1 -2 4 4 9 15 9 10 1 19 -2 19 -8z m-740 -9 c13 -9 13 -10 0 -10 -8 0 -22 5
-30 10 -13 9 -13 10 0 10 8 0 22 -5 30 -10z m800 -100 c0 -5 -7 -10 -16 -10
-8 0 -12 5 -9 10 3 6 10 10 16 10 5 0 9 -4 9 -10z m-57 -17 c-7 -2 -21 -2 -30
0 -10 3 -4 5 12 5 17 0 24 -2 18 -5z m62 -13 c3 -5 1 -10 -4 -10 -6 0 -11 5
-11 10 0 6 2 10 4 10 3 0 8 -4 11 -10z m15 -30 c0 -5 -8 -10 -17 -10 -15 0
-16 2 -3 10 19 12 20 12 20 0z m-30 -145 c-7 -8 -20 -15 -29 -15 -11 0 -8 5 9
14 33 19 35 19 20 1z m-950 -295 c23 -27 38 -50 33 -50 -8 1 -88 100 -80 100
3 0 24 -22 47 -50z m228 -263 c48 -55 100 -115 117 -135 l29 -37 -28 25 c-28
24 -269 300 -290 331 -16 23 74 -73 172 -184z m777 193 c7 -12 -2 -12 -30 0
-19 8 -19 9 2 9 12 1 25 -3 28 -9z m108 -4 c16 -12 16 -14 1 -20 -24 -9 -31
-7 -14 5 11 8 3 9 -30 5 -43 -6 -44 -5 -20 9 31 18 40 18 63 1z m-449 -47 c-3
-5 -1 -9 4 -9 11 0 72 -54 72 -65 0 -9 -46 20 -80 52 -14 13 -28 23 -32 23 -5
0 -8 4 -8 9 0 4 11 6 25 3 14 -2 22 -8 19 -13z m98 -105 c7 -8 28 -31 46 -50
17 -20 32 -38 32 -41 0 -3 10 -13 23 -24 17 -14 18 -18 6 -19 -16 0 -101 85
-93 93 3 2 -7 12 -21 21 -25 16 -33 36 -15 36 5 0 15 -7 22 -16z m378 -49 c0
-1 -11 -5 -25 -7 -16 -3 -25 -1 -25 7 0 8 9 10 25 7 14 -2 25 -6 25 -7z m40
-39 c0 -2 -7 -7 -16 -10 -8 -3 -12 -2 -9 4 6 10 25 14 25 6z m-265 -92 c20
-19 34 -38 31 -41 -10 -10 26 -43 48 -44 12 0 15 -3 8 -6 -8 -3 -5 -11 10 -24
19 -15 20 -18 7 -19 -10 0 -30 15 -47 34 -16 19 -39 39 -51 45 -11 7 -21 16
-21 22 0 5 -9 19 -20 31 -11 12 -20 25 -20 30 0 17 19 7 55 -28z m145 16 c0
-5 -5 -10 -11 -10 -5 0 -7 5 -4 10 3 6 8 10 11 10 2 0 4 -4 4 -10z m70 -15 c0
-7 -57 -35 -71 -35 -24 0 17 24 69 39 1 1 2 -1 2 -4z m816 -400 c-9 -14 -21
-25 -26 -25 -16 0 -5 42 16 57 25 18 31 0 10 -32z m-5866 -39 c11 -14 9 -16
-13 -16 -27 0 -52 23 -42 40 7 12 34 0 55 -24z m5111 4 c61 -28 62 -29 29 -29
-52 1 -81 12 -98 37 -19 29 -7 28 69 -8z m-4216 -20 c-74 -12 -215 -12 -215 0
0 6 50 9 133 9 103 -1 121 -3 82 -9z m5121 -65 c4 -8 11 -15 18 -15 16 0 48
-39 41 -50 -5 -9 -31 13 -69 58 -11 13 -14 22 -7 22 6 0 14 -7 17 -15z m-4773
-192 c-7 -2 -21 -2 -30 0 -10 3 -4 5 12 5 17 0 24 -2 18 -5z"/>
<path d="M6827 8552 c-53 -2 -85 -7 -82 -12 4 -6 -2 -10 -12 -10 -10 -1 2 -9
27 -19 25 -9 75 -36 111 -59 36 -23 69 -42 73 -42 4 0 22 -11 39 -24 18 -13
49 -29 69 -35 20 -7 38 -17 40 -23 3 -7 123 -10 378 -10 399 1 524 6 568 24
15 6 32 12 37 14 14 3 77 32 95 44 8 5 36 16 62 26 26 9 46 21 45 28 -1 6 -18
22 -37 35 -19 14 -40 31 -46 39 -7 10 -36 16 -85 19 -89 5 -1158 9 -1282 5z"/>
<path d="M3425 8350 c10 -11 20 -20 23 -20 3 0 -3 9 -13 20 -10 11 -20 20 -23
20 -3 0 3 -9 13 -20z"/>
<path d="M3430 8296 c0 -2 7 -9 15 -16 9 -7 15 -8 15 -2 0 5 -7 12 -15 16 -8
3 -15 4 -15 2z"/>
<path d="M2355 8205 c-16 -7 -23 -14 -15 -14 8 0 26 6 40 14 32 18 14 18 -25
0z"/>
<path d="M2543 8205 c-17 -7 -34 -11 -37 -8 -10 10 -75 12 -81 3 -3 -6 1 -7 9
-4 9 3 16 2 16 -2 0 -17 205 -5 250 14 24 10 24 11 3 11 -12 1 -25 -4 -29 -10
-3 -6 -17 -8 -30 -5 -14 4 -33 2 -44 -4 -11 -6 -21 -6 -24 -1 -4 5 0 12 6 14
7 3 9 6 3 6 -5 0 -24 -6 -42 -14z"/>
<path d="M2774 8213 l29 -5 -29 -19 -29 -20 30 7 c17 4 34 11 40 15 14 13 28
11 22 -4 -3 -9 34 -13 166 -15 130 -1 174 -5 186 -16 42 -37 81 -78 141 -146
91 -104 107 -120 121 -120 6 0 -1 12 -15 28 -62 63 -104 112 -125 146 -13 20
-26 36 -30 36 -4 0 -14 11 -21 25 -7 14 -20 25 -27 25 -8 0 -12 4 -8 10 8 13
-35 39 -76 45 -89 14 -101 14 -122 -6 -11 -10 -25 -19 -30 -19 -5 0 1 9 14 20
l24 19 -23 1 c-13 0 -21 -4 -18 -9 7 -10 -52 -26 -61 -17 -4 3 -1 6 5 6 7 0
12 5 12 11 0 5 -4 8 -8 5 -11 -7 -75 -8 -142 -2 -30 2 -42 2 -26 -1z"/>
<path d="M2700 8190 c-13 -9 -13 -10 0 -10 8 0 22 5 30 10 13 9 13 10 0 10 -8
0 -22 -5 -30 -10z"/>
<path d="M2885 8130 c-34 -6 -35 -7 -10 -8 17 0 50 3 75 7 40 8 41 8 10 8 -19
0 -53 -3 -75 -7z"/>
<path d="M3005 8130 c-7 -12 2 -12 30 0 19 8 19 9 -2 9 -12 1 -25 -3 -28 -9z"/>
<path d="M3093 8123 c9 -2 25 -2 35 0 9 3 1 5 -18 5 -19 0 -27 -2 -17 -5z"/>
<path d="M2821 8098 c-35 -5 -71 -13 -80 -19 -12 -7 -10 -8 9 -4 73 14 154 24
163 18 6 -3 7 -1 3 5 -8 13 -5 13 -95 0z"/>
<path d="M3058 8053 c6 -2 18 -2 25 0 6 3 1 5 -13 5 -14 0 -19 -2 -12 -5z"/>
<path d="M2730 8040 c-13 -8 -12 -10 3 -10 9 0 17 5 17 10 0 12 -1 12 -20 0z"/>
<path d="M2840 8040 l-75 -6 75 -1 c41 -1 86 3 100 7 l25 8 -25 -1 c-14 0 -59
-3 -100 -7z"/>
<path d="M2678 8023 c7 -3 16 -2 19 1 4 3 -2 6 -13 5 -11 0 -14 -3 -6 -6z"/>
<path d="M3018 8015 c-3 -3 -36 -8 -74 -10 -96 -6 -153 -16 -160 -26 -3 -5 13
-9 35 -9 23 0 41 5 41 10 0 6 7 10 16 10 8 0 13 -4 10 -9 -4 -5 10 -5 32 0 20
5 54 9 75 9 20 0 37 4 37 10 0 5 7 6 17 3 11 -4 14 -3 9 5 -7 12 -29 16 -38 7z"/>
<path d="M2740 7970 c-9 -6 -10 -10 -3 -10 6 0 15 5 18 10 8 12 4 12 -15 0z"/>
<path d="M2658 7963 c7 -3 16 -2 19 1 4 3 -2 6 -13 5 -11 0 -14 -3 -6 -6z"/>
<path d="M2498 7933 c12 -2 32 -2 45 0 12 2 2 4 -23 4 -25 0 -35 -2 -22 -4z"/>
<path d="M2668 7913 c7 -3 16 -2 19 1 4 3 -2 6 -13 5 -11 0 -14 -3 -6 -6z"/>
<path d="M2898 7913 c7 -3 16 -2 19 1 4 3 -2 6 -13 5 -11 0 -14 -3 -6 -6z"/>
<path d="M2558 7893 c7 -3 16 -2 19 1 4 3 -2 6 -13 5 -11 0 -14 -3 -6 -6z"/>
<path d="M2660 7884 l-75 -13 67 5 c37 2 78 9 90 14 30 11 10 10 -82 -6z"/>
<path d="M2198 7883 c7 -3 16 -2 19 1 4 3 -2 6 -13 5 -11 0 -14 -3 -6 -6z"/>
<path d="M3457 7869 c7 -7 15 -10 18 -7 3 3 -2 9 -12 12 -14 6 -15 5 -6 -5z"/>
<path d="M2295 7835 c-40 -14 -40 -14 -5 -8 19 3 42 9 50 14 22 12 1 9 -45 -6z"/>
<path d="M2610 7815 c-25 -7 -78 -19 -118 -25 -40 -7 -71 -14 -68 -17 6 -7
134 15 221 38 43 11 59 18 40 18 -16 0 -50 -6 -75 -14z"/>
<path d="M2721 7799 c-24 -5 -46 -11 -49 -14 -8 -7 14 -5 93 10 44 8 57 13 35
13 -19 0 -55 -4 -79 -9z"/>
<path d="M2563 7776 c-40 -11 -67 -26 -46 -26 6 0 28 6 49 14 22 7 44 11 51 9
6 -2 14 1 18 6 8 13 -16 12 -72 -3z"/>
<path d="M3530 7782 c0 -5 20 -29 45 -53 25 -24 45 -47 45 -50 0 -3 18 -26 39
-50 58 -65 228 -263 291 -338 29 -36 74 -88 100 -114 25 -27 47 -54 50 -60 5
-12 31 -42 137 -156 29 -31 53 -61 53 -67 0 -7 6 -14 14 -17 7 -3 53 -52 101
-109 48 -57 95 -110 104 -118 9 -8 31 -33 50 -55 19 -22 71 -80 116 -130 46
-49 98 -108 116 -129 70 -81 154 -171 164 -175 5 -2 -8 15 -30 38 -21 22 -36
41 -32 41 3 0 -13 18 -38 41 -24 23 -44 44 -43 47 2 21 -4 32 -17 32 -8 0 -15
4 -15 10 0 5 -19 29 -42 54 -24 25 -67 76 -96 113 -29 37 -75 90 -102 118 -28
27 -50 53 -50 57 0 4 -31 39 -70 77 -38 39 -70 74 -70 79 0 5 -19 29 -42 54
-24 25 -57 63 -75 84 -52 63 -135 157 -157 180 -12 11 -32 35 -46 53 -14 18
-34 43 -45 55 -11 12 -40 46 -65 75 -25 29 -56 66 -70 81 -125 140 -146 162
-159 175 -28 27 -91 97 -91 102 0 8 -54 63 -62 63 -5 0 -8 -4 -8 -8z"/>
<path d="M2215 7760 c-3 -5 -1 -10 4 -10 6 0 11 5 11 10 0 6 -2 10 -4 10 -3 0
-8 -4 -11 -10z"/>
<path d="M2338 7763 c6 -2 18 -2 25 0 6 3 1 5 -13 5 -14 0 -19 -2 -12 -5z"/>
<path d="M2405 7755 c-5 -2 -28 -7 -50 -11 l-40 -7 30 -7 c28 -7 28 -8 5 -9
-14 -1 -38 -8 -55 -16 -30 -14 -30 -14 15 -8 25 3 56 7 70 10 24 4 54 8 93 11
9 1 17 6 17 11 0 5 -26 8 -57 6 -57 -4 -57 -4 -14 5 24 5 46 12 49 15 6 5 -46
6 -63 0z"/>
<path d="M2545 7738 c-16 -6 -36 -17 -43 -25 -7 -7 -23 -13 -35 -13 -30 -1
-167 -49 -141 -49 11 -1 44 6 73 15 29 8 55 14 57 11 2 -2 -15 -10 -38 -17
-87 -26 -96 -30 -57 -25 20 2 49 9 64 15 16 6 42 10 58 8 18 -2 32 2 35 10 2
7 -2 13 -9 11 -37 -5 -39 4 -4 15 22 7 39 18 37 25 -1 6 3 11 10 10 7 -1 24 3
38 9 21 9 22 11 5 11 -11 -1 -33 -5 -50 -11z"/>
<path d="M2720 7740 l-25 -8 25 0 c14 0 36 4 50 8 l25 8 -25 0 c-14 0 -36 -4
-50 -8z"/>
<path d="M2668 7723 c7 -3 16 -2 19 1 4 3 -2 6 -13 5 -11 0 -14 -3 -6 -6z"/>
<path d="M2555 7690 c6 -10 40 -8 51 3 4 4 -7 7 -25 7 -19 0 -30 -4 -26 -10z"/>
<path d="M2765 7677 c-16 -13 -15 -14 14 -9 17 2 34 8 37 13 8 14 -30 10 -51
-4z"/>
<path d="M2616 7644 c-49 -13 -91 -26 -94 -29 -11 -10 8 -18 20 -8 7 6 47 18
88 28 41 10 79 21 85 26 12 12 7 11 -99 -17z"/>
<path d="M2898 7653 c6 -2 18 -2 25 0 6 3 1 5 -13 5 -14 0 -19 -2 -12 -5z"/>
<path d="M2432 7633 c14 -3 15 -7 6 -17 -7 -7 -20 -11 -29 -9 -9 3 -19 0 -23
-5 -3 -5 7 -12 24 -14 17 -3 27 0 23 6 -4 5 1 7 10 3 10 -4 16 -2 14 5 -1 7 4
12 11 13 28 1 10 20 -20 21 -18 1 -25 0 -16 -3z"/>
<path d="M2305 7610 c-3 -5 -1 -10 4 -10 6 0 11 5 11 10 0 6 -2 10 -4 10 -3 0
-8 -4 -11 -10z"/>
<path d="M2330 7611 c0 -4 11 -6 25 -3 14 2 25 6 25 8 0 2 -11 4 -25 4 -14 0
-25 -4 -25 -9z"/>
<path d="M2520 7589 c-36 -11 -97 -21 -135 -24 -39 -2 -86 -11 -105 -19 -34
-14 -34 -14 30 -11 45 2 58 0 46 -7 -9 -5 -24 -7 -32 -4 -8 3 -24 1 -36 -4
-17 -6 -10 -8 27 -6 28 2 73 13 100 24 28 11 83 30 123 41 39 12 72 24 72 26
0 8 -21 4 -90 -16z"/>
<path d="M2635 7601 c-3 -5 -19 -12 -36 -16 -17 -4 -28 -9 -26 -12 8 -7 87 19
87 29 0 11 -17 10 -25 -1z"/>
<path d="M2678 7603 c7 -3 16 -2 19 1 4 3 -2 6 -13 5 -11 0 -14 -3 -6 -6z"/>
<path d="M2848 7603 c7 -3 16 -2 19 1 4 3 -2 6 -13 5 -11 0 -14 -3 -6 -6z"/>
<path d="M2318 7583 c7 -3 16 -2 19 1 4 3 -2 6 -13 5 -11 0 -14 -3 -6 -6z"/>
<path d="M2730 7580 c-8 -5 -10 -10 -5 -10 6 0 17 5 25 10 8 5 11 10 5 10 -5
0 -17 -5 -25 -10z"/>
<path d="M2630 7564 c-19 -9 -69 -27 -110 -41 -41 -13 -79 -28 -84 -33 -17
-17 126 29 244 78 21 9 22 11 5 11 -11 0 -36 -7 -55 -15z"/>
<path d="M2751 7559 c-18 -6 -31 -12 -29 -14 5 -5 78 14 78 20 0 6 -8 5 -49
-6z"/>
<path d="M2713 7507 c-83 -29 -91 -40 -11 -16 34 11 67 24 73 30 12 12 12 12
-62 -14z"/>
<path d="M2203 7513 c14 -4 16 -8 6 -19 -7 -8 -7 -14 -1 -14 12 0 23 26 15 34
-4 3 -13 5 -22 5 -12 -1 -12 -2 2 -6z"/>
<path d="M2381 7484 c-19 -8 -32 -17 -29 -19 7 -7 55 11 63 24 8 14 8 13 -34
-5z"/>
<path d="M2320 7480 c-9 -6 -10 -10 -3 -10 6 0 15 5 18 10 8 12 4 12 -15 0z"/>
<path d="M2758 7483 c6 -2 18 -2 25 0 6 3 1 5 -13 5 -14 0 -19 -2 -12 -5z"/>
<path d="M2455 7470 l-20 -9 20 0 c11 0 27 4 35 9 13 9 13 10 0 9 -8 0 -24 -4
-35 -9z"/>
<path d="M4220 7445 c19 -19 36 -35 39 -35 3 0 -10 16 -29 35 -19 19 -36 35
-39 35 -3 0 10 -16 29 -35z"/>
<path d="M7970 7458 c0 -12 3 -18 7 -14 11 10 12 36 2 36 -5 0 -9 -10 -9 -22z"/>
<path d="M2261 7459 c-14 -5 -31 -7 -38 -4 -8 2 -12 1 -9 -4 3 -5 -1 -12 -10
-15 -9 -4 -15 -9 -12 -11 5 -5 93 27 104 38 10 10 -6 8 -35 -4z"/>
<path d="M2542 7460 c-13 -6 -42 -12 -65 -14 -23 -2 -66 -13 -95 -25 -30 -12
-58 -18 -64 -15 -6 4 17 16 52 26 34 11 60 22 57 25 -9 8 -127 -36 -159 -59
-16 -11 -27 -22 -25 -24 8 -8 335 75 343 88 7 10 -14 9 -44 -2z"/>
<path d="M4170 7414 c30 -33 57 -59 59 -57 6 4 -60 76 -89 98 -14 10 0 -8 30
-41z"/>
<path d="M2200 7400 c-13 -8 -13 -10 2 -10 9 0 20 5 23 10 8 13 -5 13 -25 0z"/>
<path d="M2345 7375 c-16 -7 -23 -14 -15 -14 8 0 29 6 45 14 17 7 23 14 15 14
-8 0 -28 -6 -45 -14z"/>
<path d="M2605 7369 c-4 -6 -13 -8 -21 -5 -8 3 -14 1 -14 -4 0 -6 -9 -10 -20
-10 -11 0 -20 -4 -20 -10 0 -14 8 -12 65 15 28 13 42 24 33 24 -9 1 -20 -4
-23 -10z"/>
<path d="M2375 7355 c-25 -12 -26 -14 -5 -9 14 4 29 10 35 15 12 12 5 11 -30
-6z"/>
<path d="M2445 7345 c-33 -12 -86 -33 -118 -46 -31 -12 -55 -24 -53 -27 3 -2
36 7 73 22 37 14 100 36 138 50 41 15 60 25 45 25 -14 0 -52 -11 -85 -24z"/>
<path d="M2208 7353 c7 -3 16 -2 19 1 4 3 -2 6 -13 5 -11 0 -14 -3 -6 -6z"/>
<path d="M7976 7324 c-9 -24 -2 -26 12 -4 7 11 8 20 3 20 -5 0 -12 -7 -15 -16z"/>
<path d="M4265 7310 c10 -11 20 -20 23 -20 3 0 -3 9 -13 20 -10 11 -20 20 -23
20 -3 0 3 -9 13 -20z"/>
<path d="M2605 7309 c-16 -5 -68 -18 -115 -31 -75 -19 -82 -22 -58 -30 30 -10
108 7 108 23 0 6 7 8 16 5 21 -8 56 3 49 15 -4 5 3 9 14 9 11 0 23 5 26 10 7
11 2 11 -40 -1z m-138 -55 c-3 -3 -12 -4 -19 -1 -8 3 -5 6 6 6 11 1 17 -2 13
-5z"/>
<path d="M4240 7295 c13 -14 26 -25 28 -25 3 0 -5 11 -18 25 -13 14 -26 25
-28 25 -3 0 5 -11 18 -25z"/>
<path d="M4305 7300 c10 -11 20 -20 23 -20 3 0 -3 9 -13 20 -10 11 -20 20 -23
20 -3 0 3 -9 13 -20z"/>
<path d="M2395 7290 c-3 -5 -1 -10 4 -10 6 0 11 5 11 10 0 6 -2 10 -4 10 -3 0
-8 -4 -11 -10z"/>
<path d="M2345 7274 l-30 -14 30 6 c31 6 41 11 34 18 -2 2 -17 -2 -34 -10z"/>
<path d="M2720 7280 c-18 -12 -2 -12 25 0 13 6 15 9 5 9 -8 0 -22 -4 -30 -9z"/>
<path d="M2570 7229 c-161 -54 -230 -81 -230 -90 0 -4 30 3 68 17 37 15 108
40 157 56 50 17 94 34 100 39 13 13 2 10 -95 -22z"/>
<path d="M2400 7230 c-8 -5 -10 -10 -5 -10 6 0 17 5 25 10 8 5 11 10 5 10 -5
0 -17 -5 -25 -10z"/>
<path d="M2210 7211 c0 -12 -4 -21 -10 -21 -5 0 -10 -4 -10 -10 0 -5 6 -10 14
-10 15 0 28 48 15 56 -5 3 -9 -4 -9 -15z"/>
<path d="M2488 7223 c7 -3 16 -2 19 1 4 3 -2 6 -13 5 -11 0 -14 -3 -6 -6z"/>
<path d="M2305 7194 c-66 -31 -43 -31 26 0 30 14 47 25 39 25 -8 0 -37 -11
-65 -25z"/>
<path d="M2413 7210 c-34 -14 -28 -21 7 -9 17 6 30 13 30 15 0 6 -12 4 -37 -6z"/>
<path d="M3558 7203 c7 -3 16 -2 19 1 4 3 -2 6 -13 5 -11 0 -14 -3 -6 -6z"/>
<path d="M4300 7180 c0 -5 5 -10 11 -10 5 0 7 5 4 10 -3 6 -8 10 -11 10 -2 0
-4 -4 -4 -10z"/>
<path d="M2510 7170 c0 -5 5 -10 10 -10 6 0 10 5 10 10 0 6 -4 10 -10 10 -5 0
-10 -4 -10 -10z"/>
<path d="M2192 7148 c6 -18 28 -21 28 -4 0 9 -7 16 -16 16 -9 0 -14 -5 -12
-12z"/>
<path d="M2698 7153 c7 -3 16 -2 19 1 4 3 -2 6 -13 5 -11 0 -14 -3 -6 -6z"/>
<path d="M3688 7153 c6 -2 18 -2 25 0 6 3 1 5 -13 5 -14 0 -19 -2 -12 -5z"/>
<path d="M2429 7133 c-12 -16 -12 -17 1 -7 8 6 22 14 30 17 13 5 12 6 -1 6 -9
1 -23 -7 -30 -16z"/>
<path d="M2590 7130 c-9 -6 -10 -10 -3 -10 6 0 15 5 18 10 8 12 4 12 -15 0z"/>
<path d="M3648 7133 c7 -3 16 -2 19 1 4 3 -2 6 -13 5 -11 0 -14 -3 -6 -6z"/>
<path d="M7970 7128 c0 -22 17 -41 24 -29 4 6 2 11 -5 11 -8 0 -8 4 1 15 10
12 10 15 -4 15 -9 0 -16 -6 -16 -12z"/>
<path d="M2467 7109 c-22 -11 -37 -23 -34 -25 3 -3 27 6 54 20 26 14 41 25 33
25 -8 0 -32 -9 -53 -20z"/>
<path d="M3728 7123 c6 -2 18 -2 25 0 6 3 1 5 -13 5 -14 0 -19 -2 -12 -5z"/>
<path d="M2340 7084 l-25 -15 25 7 c14 3 32 10 40 15 13 7 13 8 0 8 -8 0 -26
-6 -40 -15z"/>
<path d="M3568 7093 c6 -2 18 -2 25 0 6 3 1 5 -13 5 -14 0 -19 -2 -12 -5z"/>
<path d="M2210 7075 c-9 -11 -10 -19 -3 -26 8 -8 13 -7 17 0 4 6 2 11 -5 11
-8 0 -8 4 1 15 7 8 10 15 7 15 -2 0 -10 -7 -17 -15z"/>
<path d="M2368 7059 c-21 -11 -38 -22 -38 -24 0 -5 79 32 89 41 12 11 -18 1
-51 -17z"/>
<path d="M3768 7073 c7 -3 16 -2 19 1 4 3 -2 6 -13 5 -11 0 -14 -3 -6 -6z"/>
<path d="M4038 7073 c6 -2 18 -2 25 0 6 3 1 5 -13 5 -14 0 -19 -2 -12 -5z"/>
<path d="M7977 7067 c-11 -29 -9 -53 4 -40 6 6 9 21 7 34 -3 21 -4 22 -11 6z"/>
<path d="M2285 7060 c-3 -6 1 -7 9 -4 18 7 21 14 7 14 -6 0 -13 -4 -16 -10z"/>
<path d="M3533 7063 c9 -2 25 -2 35 0 9 3 1 5 -18 5 -19 0 -27 -2 -17 -5z"/>
<path d="M2275 7030 c-3 -6 1 -7 9 -4 18 7 21 14 7 14 -6 0 -13 -4 -16 -10z"/>
<path d="M4080 7030 c8 -5 26 -9 40 -9 l25 1 -25 8 c-14 4 -32 8 -40 9 -13 1
-13 0 0 -9z"/>
<path d="M2280 7005 c-14 -8 -20 -14 -14 -15 5 0 19 7 30 15 24 18 16 19 -16
0z"/>
<path d="M4008 7013 c7 -3 16 -2 19 1 4 3 -2 6 -13 5 -11 0 -14 -3 -6 -6z"/>
<path d="M4100 6995 c19 -7 49 -13 65 -13 29 0 29 0 5 7 -14 4 -43 11 -65 14
l-40 6 35 -14z"/>
<path d="M7970 6990 c0 -11 4 -20 9 -20 6 0 9 9 8 20 -1 11 -5 20 -9 20 -4 0
-8 -9 -8 -20z"/>
<path d="M3620 6979 l-25 -7 25 -2 c99 -7 142 -7 125 0 -33 12 -99 17 -125 9z"/>
<path d="M3498 6963 c7 -3 16 -2 19 1 4 3 -2 6 -13 5 -11 0 -14 -3 -6 -6z"/>
<path d="M3798 6963 c7 -3 16 -2 19 1 4 3 -2 6 -13 5 -11 0 -14 -3 -6 -6z"/>
<path d="M8050 6938 c0 -19 2 -20 10 -8 13 19 13 30 0 30 -5 0 -10 -10 -10
-22z"/>
<path d="M7975 6939 c-4 -6 -5 -12 -2 -15 2 -3 7 2 10 11 7 17 1 20 -8 4z"/>
<path d="M3578 6913 c7 -3 16 -2 19 1 4 3 -2 6 -13 5 -11 0 -14 -3 -6 -6z"/>
<path d="M4185 6910 c11 -5 29 -9 40 -9 l20 0 -20 9 c-11 5 -29 9 -40 9 l-20
0 20 -9z"/>
<path d="M2510 6895 c-14 -8 -20 -14 -14 -15 5 0 19 7 30 15 24 18 16 19 -16
0z"/>
<path d="M3633 6903 c9 -2 23 -2 30 0 6 3 -1 5 -18 5 -16 0 -22 -2 -12 -5z"/>
<path d="M3863 6899 c14 -8 22 -8 30 0 8 8 3 11 -18 11 -26 -1 -28 -2 -12 -11z"/>
<path d="M7975 6900 c-3 -5 -2 -10 4 -10 5 0 13 5 16 10 3 6 2 10 -4 10 -5 0
-13 -4 -16 -10z"/>
<path d="M3718 6893 c6 -2 18 -2 25 0 6 3 1 5 -13 5 -14 0 -19 -2 -12 -5z"/>
<path d="M4001 6895 c3 -2 39 -11 80 -20 72 -14 189 -39 239 -51 24 -5 24 -5
5 10 -11 8 -32 16 -46 16 -14 0 -62 9 -105 19 -82 20 -181 35 -173 26z"/>
<path d="M4158 6893 c7 -3 16 -2 19 1 4 3 -2 6 -13 5 -11 0 -14 -3 -6 -6z"/>
<path d="M7985 6870 c-3 -5 -1 -10 4 -10 6 0 11 5 11 10 0 6 -2 10 -4 10 -3 0
-8 -4 -11 -10z"/>
<path d="M3493 6863 c9 -2 23 -2 30 0 6 3 -1 5 -18 5 -16 0 -22 -2 -12 -5z"/>
<path d="M3555 6859 c27 -10 107 -11 123 0 7 4 -20 8 -65 8 -49 0 -70 -3 -58
-8z"/>
<path d="M3738 6863 c6 -2 18 -2 25 0 6 3 1 5 -13 5 -14 0 -19 -2 -12 -5z"/>
<path d="M3710 6840 c25 -8 137 -13 129 -6 -2 2 -38 6 -79 8 -42 3 -64 2 -50
-2z"/>
<path d="M4135 6837 c28 -7 56 -17 63 -21 7 -4 12 -3 12 2 0 13 -18 19 -76 26
l-49 6 50 -13z"/>
<path d="M7975 6840 c-3 -5 -1 -10 4 -10 6 0 11 5 11 10 0 6 -2 10 -4 10 -3 0
-8 -4 -11 -10z"/>
<path d="M3958 6833 c7 -3 16 -2 19 1 4 3 -2 6 -13 5 -11 0 -14 -3 -6 -6z"/>
<path d="M3863 6823 c9 -2 25 -2 35 0 9 3 1 5 -18 5 -19 0 -27 -2 -17 -5z"/>
<path d="M3598 6813 c7 -3 16 -2 19 1 4 3 -2 6 -13 5 -11 0 -14 -3 -6 -6z"/>
<path d="M3725 6810 c11 -5 31 -9 44 -9 51 -2 7 -13 -84 -21 -12 -2 -6 -6 15
-10 111 -25 132 -32 120 -40 -6 -4 32 -13 87 -19 129 -16 148 -19 214 -36 69
-18 82 -19 73 -3 -5 8 -2 9 10 5 27 -10 148 -28 153 -23 3 3 -5 7 -18 10 -68
14 -157 29 -179 31 -44 3 -95 17 -115 31 -23 17 -20 17 25 4 38 -12 253 -50
278 -50 36 0 -2 11 -124 36 -242 50 -268 53 -276 41 -4 -7 -8 -7 -8 -2 0 13
-74 42 -125 50 -92 14 -111 15 -90 5z m193 -67 c42 -18 48 -22 22 -17 -19 4
-49 8 -67 8 -17 0 -29 4 -27 8 3 4 -8 10 -23 14 -67 14 -77 23 -20 18 31 -4
83 -17 115 -31z"/>
<path d="M3936 6809 c3 -5 15 -9 27 -9 16 0 18 -3 8 -9 -8 -5 7 -11 45 -15 59
-7 113 -17 189 -35 95 -23 92 -22 60 -6 l-30 15 40 -6 c22 -3 52 -10 67 -16
15 -5 33 -8 40 -5 7 3 3 6 -9 6 -12 1 -23 6 -25 12 -2 6 -34 14 -72 19 -63 8
-98 19 -65 21 12 1 -22 8 -161 33 l-35 6 35 -15 35 -15 -35 4 c-19 3 -54 9
-77 14 -23 5 -40 5 -37 1z"/>
<path d="M3638 6803 c7 -3 16 -2 19 1 4 3 -2 6 -13 5 -11 0 -14 -3 -6 -6z"/>
<path d="M3898 6803 c7 -3 16 -2 19 1 4 3 -2 6 -13 5 -11 0 -14 -3 -6 -6z"/>
<path d="M4273 6789 c7 -4 26 -9 42 -11 17 -3 24 -3 16 0 -11 3 -11 6 -1 12 7
4 -6 7 -29 6 -22 0 -35 -4 -28 -7z"/>
<path d="M7977 6763 c-4 -3 -7 -15 -7 -27 0 -20 0 -20 15 0 8 10 15 22 15 27
0 9 -14 9 -23 0z"/>
<path d="M3638 6733 c7 -3 16 -2 19 1 4 3 -2 6 -13 5 -11 0 -14 -3 -6 -6z"/>
<path d="M3760 6736 c0 -2 9 -6 20 -9 11 -3 20 -1 20 4 0 5 -9 9 -20 9 -11 0
-20 -2 -20 -4z"/>
<path d="M3719 6691 c14 -10 31 -17 39 -14 18 7 4 19 -33 27 l-30 7 24 -20z"/>
<path d="M7975 6700 c3 -5 8 -10 11 -10 2 0 4 5 4 10 0 6 -5 10 -11 10 -5 0
-7 -4 -4 -10z"/>
<path d="M3790 6689 c0 -5 23 -9 52 -9 50 0 57 -13 13 -22 -16 -4 -11 -9 25
-27 44 -22 44 -22 10 -15 -19 3 -43 6 -52 5 -41 -3 -65 -2 -93 3 -27 6 -27 5
-7 -4 13 -5 20 -14 17 -20 -7 -11 35 -31 49 -22 5 3 6 0 2 -6 -4 -7 -24 -12
-44 -12 -28 0 -33 -3 -22 -10 8 -5 32 -10 53 -10 20 0 37 -4 37 -8 0 -4 -17
-7 -37 -5 l-38 3 40 -19 c22 -11 35 -20 28 -20 -23 -2 -1 -30 30 -40 18 -6 70
-15 117 -20 47 -6 103 -13 125 -16 38 -5 39 -5 20 10 -19 15 -16 16 40 10 33
-4 68 -11 78 -16 10 -6 17 -6 17 0 0 5 -6 12 -12 14 -8 3 -7 6 4 6 9 1 19 5
22 9 2 4 -10 6 -29 4 -18 -2 -35 1 -39 6 -4 6 2 8 16 4 13 -3 19 -1 15 5 -4 6
-31 14 -59 18 -74 10 -229 43 -236 49 -10 11 32 6 88 -9 30 -9 86 -18 123 -20
38 -3 76 -9 85 -14 32 -16 92 -21 92 -7 0 9 -38 19 -121 32 -67 10 -117 20
-111 22 6 2 43 -1 84 -7 49 -7 74 -7 79 0 4 6 21 8 44 3 27 -5 36 -4 31 5 -4
6 -18 11 -31 11 -25 0 -60 7 -170 35 l-60 15 60 -5 c40 -3 53 -1 40 5 -17 7
-16 9 10 9 40 1 107 -18 100 -28 -3 -5 2 -12 11 -15 24 -9 36 -7 28 5 -4 7 0
9 12 6 11 -3 46 -8 79 -11 47 -4 52 -3 25 4 -19 5 -52 12 -72 15 -46 7 -50 25
-6 25 42 0 31 9 -18 14 -64 7 -114 18 -110 25 2 3 -17 6 -42 6 -75 1 -137 8
-143 18 -10 14 -249 30 -249 16z m498 -75 c27 -15 27 -15 -13 -9 -22 3 -67 13
-100 21 l-60 14 73 -5 c41 -3 86 -12 100 -21z m-313 -14 c7 -12 -2 -12 -30 0
-19 8 -19 9 2 9 12 1 25 -3 28 -9z m-120 -30 c3 -5 -1 -10 -9 -10 -9 0 -16 5
-16 10 0 6 4 10 9 10 6 0 13 -4 16 -10z m240 0 l30 -8 -35 -1 c-19 0 -42 4
-50 9 -12 8 -11 10 5 9 11 -1 34 -5 50 -9z m68 -17 c-7 -2 -19 -2 -25 0 -7 3
-2 5 12 5 14 0 19 -2 13 -5z m70 -10 c-7 -2 -19 -2 -25 0 -7 3 -2 5 12 5 14 0
19 -2 13 -5z m-279 -33 c20 -8 20 -9 1 -9 -11 0 -42 6 -70 14 l-50 15 49 -6
c27 -3 58 -9 70 -14z m-67 -16 c-3 -3 -12 -4 -19 -1 -8 3 -5 6 6 6 11 1 17 -2
13 -5z m23 -20 c0 -2 -16 -4 -35 -4 -19 0 -35 4 -35 8 0 4 16 6 35 4 19 -2 35
-6 35 -8z m105 -14 c12 -1 15 -4 7 -7 -16 -6 -102 16 -102 27 0 4 17 2 38 -6
20 -7 46 -14 57 -14z"/>
<path d="M2570 6670 c-9 -6 -10 -10 -3 -10 6 0 15 5 18 10 8 12 4 12 -15 0z"/>
<path d="M7970 6670 c0 -5 7 -7 15 -4 8 4 15 8 15 10 0 2 -7 4 -15 4 -8 0 -15
-4 -15 -10z"/>
<path d="M3675 6660 c19 -8 103 -14 94 -6 -2 2 -29 6 -59 9 -34 3 -47 2 -35
-3z"/>
<path d="M2446 6635 c-11 -8 -15 -15 -9 -15 6 0 16 7 23 15 16 19 11 19 -14 0z"/>
<path d="M2370 6620 c-9 -6 -10 -10 -3 -10 6 0 15 5 18 10 8 12 4 12 -15 0z"/>
<path d="M7974 6604 c-4 -16 -2 -29 6 -34 8 -5 9 -10 1 -14 -6 -4 -10 -36 -9
-74 1 -63 2 -65 14 -37 8 19 9 36 3 47 -6 10 -5 19 1 23 12 8 10 75 -3 75 -4
0 -5 9 -2 20 3 11 4 20 1 20 -3 0 -9 -12 -12 -26z"/>
<path d="M2394 6604 c-18 -14 -18 -15 4 -4 12 6 22 13 22 15 0 8 -5 6 -26 -11z"/>
<path d="M2324 6594 c-18 -14 -18 -15 4 -4 12 6 22 13 22 15 0 8 -5 6 -26 -11z"/>
<path d="M4436 6591 c5 -5 32 -11 59 -14 l50 -6 -50 14 c-59 17 -73 19 -59 6z"/>
<path d="M2264 6565 c-10 -8 -14 -15 -8 -15 5 0 19 7 30 15 10 8 14 15 8 15
-5 0 -19 -7 -30 -15z"/>
<path d="M2903 6540 c0 -22 5 -40 11 -40 6 0 5 -5 -2 -12 -16 -16 -15 -28 3
-28 12 0 15 13 15 60 0 44 -4 60 -14 60 -9 0 -13 -12 -13 -40z"/>
<path d="M4345 6542 c17 -11 50 -22 75 -26 32 -4 41 -3 30 4 -8 5 -25 10 -37
10 -12 0 -23 4 -25 9 -1 5 -19 12 -38 15 l-35 7 30 -19z"/>
<path d="M4495 6550 c17 -4 39 -8 50 -8 16 0 15 2 -5 8 -14 4 -36 8 -50 8 -22
0 -22 -1 5 -8z"/>
<path d="M4348 6483 c7 -3 16 -2 19 1 4 3 -2 6 -13 5 -11 0 -14 -3 -6 -6z"/>
<path d="M4361 6466 c12 -10 79 -16 79 -6 0 5 -19 10 -42 10 -23 0 -39 -2 -37
-4z"/>
<path d="M4468 6463 c7 -3 16 -2 19 1 4 3 -2 6 -13 5 -11 0 -14 -3 -6 -6z"/>
<path d="M2900 6430 c0 -5 4 -10 8 -10 10 0 9 -36 -1 -46 -11 -11 -8 -46 3
-39 17 10 11 -17 -7 -38 -17 -19 -17 -19 2 -16 18 4 20 13 22 82 1 61 -1 77
-13 77 -8 0 -14 -4 -14 -10z"/>
<path d="M3878 6423 c7 -3 16 -2 19 1 4 3 -2 6 -13 5 -11 0 -14 -3 -6 -6z"/>
<path d="M4146 6409 c-11 -7 -55 -9 -118 -6 -87 4 -96 3 -74 -9 17 -8 76 -14
164 -17 75 -2 120 -2 100 0 -20 2 -42 11 -49 19 -11 14 -8 15 27 9 29 -5 35
-4 24 4 -19 14 -50 13 -74 0z"/>
<path d="M4281 6399 c18 -11 39 -11 39 0 0 5 -12 9 -26 9 -18 0 -22 -3 -13 -9z"/>
<path d="M4341 6396 c2 -2 27 -6 54 -10 34 -4 43 -3 30 3 -19 9 -93 15 -84 7z"/>
<path d="M7972 6370 c1 -30 28 -45 28 -15 0 8 -5 15 -11 15 -8 0 -8 5 1 15 10
12 10 15 -3 15 -11 0 -15 -9 -15 -30z"/>
<path d="M3925 6370 l-20 -7 20 -6 c98 -31 275 -55 275 -38 0 7 -11 9 -27 6
-22 -4 -20 -2 7 8 33 13 34 14 10 20 -14 4 -38 6 -55 6 -26 -1 -27 -2 -8 -7
16 -5 20 -11 13 -21 -7 -12 -11 -12 -23 -2 -15 12 -20 13 -97 26 -25 4 -52 11
-60 15 -8 4 -24 4 -35 0z"/>
<path d="M4281 6366 c2 -2 18 -6 34 -10 22 -5 26 -4 15 4 -14 9 -59 15 -49 6z"/>
<path d="M4990 6365 c0 -4 10 -20 23 -35 12 -16 30 -38 39 -51 18 -23 48 -35
48 -18 0 5 -11 14 -25 19 -14 5 -29 20 -34 32 -9 23 -51 67 -51 53z"/>
<path d="M7280 6359 c0 -5 5 -7 10 -4 6 3 10 8 10 11 0 2 -4 4 -10 4 -5 0 -10
-5 -10 -11z"/>
<path d="M4243 6343 c9 -2 25 -2 35 0 9 3 1 5 -18 5 -19 0 -27 -2 -17 -5z"/>
<path d="M3960 6320 c0 -10 29 -17 100 -26 58 -7 103 -23 65 -23 -11 0 -40 4
-64 10 -24 5 -46 7 -49 5 -7 -7 42 -25 81 -30 60 -8 132 -14 115 -9 -10 2 -18
9 -18 15 0 6 -9 8 -20 5 -11 -3 -18 0 -17 6 2 11 -62 32 -145 46 -27 4 -48 5
-48 1z"/>
<path d="M4211 6326 c12 -10 60 -16 54 -6 -3 5 -18 10 -32 10 -15 0 -24 -2
-22 -4z"/>
<path d="M2565 6310 c-3 -6 1 -7 9 -4 18 7 21 14 7 14 -6 0 -13 -4 -16 -10z"/>
<path d="M7981 6311 c-8 -5 -12 -18 -9 -29 3 -11 2 -26 -2 -33 -5 -7 -2 -18 7
-27 8 -8 10 -18 5 -21 -5 -3 -10 -41 -10 -84 -1 -69 0 -77 14 -66 11 9 12 14
3 20 -10 6 -10 11 0 23 11 12 11 16 1 16 -10 0 -10 3 -1 14 13 15 11 37 -4 49
-6 6 -6 10 3 14 15 6 16 83 1 83 -8 0 -8 4 1 15 16 19 9 37 -9 26z"/>
<path d="M5105 6290 c-7 -11 12 -41 24 -37 4 1 33 -25 64 -58 32 -33 54 -51
48 -40 -20 38 -129 147 -136 135z"/>
<path d="M5060 6237 c0 -2 15 -16 33 -33 l32 -29 -29 33 c-28 30 -36 37 -36
29z"/>
<path d="M5145 6195 c28 -25 69 -66 92 -93 23 -26 42 -42 43 -36 0 15 -156
174 -172 174 -7 -1 10 -21 37 -45z"/>
<path d="M4138 6223 c6 -2 18 -2 25 0 6 3 1 5 -13 5 -14 0 -19 -2 -12 -5z"/>
<path d="M7540 6209 c-22 -18 -22 -19 -3 -10 12 6 25 16 28 21 9 15 3 12 -25
-11z"/>
<path d="M2900 6158 c1 -38 2 -41 12 -23 15 25 19 47 7 39 -5 -3 -9 -1 -9 5 0
5 6 12 13 14 7 3 5 6 -5 6 -15 1 -18 -7 -18 -41z"/>
<path d="M4108 6183 c12 -2 30 -2 40 0 9 3 -1 5 -23 4 -22 0 -30 -2 -17 -4z"/>
<path d="M7670 6169 c-22 -18 -22 -19 -3 -10 12 6 25 16 28 21 9 15 3 12 -25
-11z"/>
<path d="M4188 6173 c6 -2 18 -2 25 0 6 3 1 5 -13 5 -14 0 -19 -2 -12 -5z"/>
<path d="M4972 6138 c7 -7 22 -20 33 -28 15 -10 14 -7 -4 13 -14 15 -29 27
-33 27 -5 0 -3 -6 4 -12z"/>
<path d="M7286 6141 c-3 -5 1 -11 9 -15 9 -3 15 0 15 9 0 16 -16 20 -24 6z"/>
<path d="M2912 6108 c-15 -15 -16 -38 -2 -38 6 0 10 3 11 8 0 4 2 15 4 25 4
20 3 21 -13 5z"/>
<path d="M7293 6103 c-18 -7 -16 -23 3 -23 9 0 12 -5 8 -12 -4 -7 -3 -8 5 -4
8 6 9 12 2 20 -6 7 -8 16 -4 19 7 8 4 8 -14 0z"/>
<path d="M5026 6068 c60 -68 104 -112 104 -103 -1 6 -23 32 -50 60 -28 27 -50
53 -50 57 0 5 -5 8 -12 8 -6 0 -3 -10 8 -22z"/>
<path d="M7544 6058 l-19 -21 28 18 c28 18 33 25 19 25 -5 0 -17 -10 -28 -22z"/>
<path d="M2905 6049 c-11 -17 1 -21 15 -4 8 9 8 15 2 15 -6 0 -14 -5 -17 -11z"/>
<path d="M7299 6045 c-1 -3 -2 -8 -3 -12 -1 -5 -5 -14 -10 -21 -8 -13 -1 -30
8 -21 7 6 16 59 10 59 -2 0 -5 -2 -5 -5z"/>
<path d="M7500 6030 c-9 -6 -10 -10 -3 -10 6 0 15 5 18 10 8 12 4 12 -15 0z"/>
<path d="M7435 6010 c-10 -11 -22 -17 -28 -13 -5 3 -7 1 -4 -4 4 -6 -7 -16
-23 -23 -41 -17 -38 -32 3 -18 31 11 97 58 80 58 -4 0 -1 5 7 10 13 8 13 10
-1 10 -9 0 -24 -9 -34 -20z"/>
<path d="M7972 6024 c4 -3 2 -19 -2 -35 -5 -18 -5 -29 1 -29 6 0 7 -4 4 -10
-3 -5 -3 -10 2 -10 4 0 8 20 9 45 0 25 -4 45 -9 45 -6 0 -8 -3 -5 -6z"/>
<path d="M2907 6013 c-4 -3 -7 -11 -7 -17 0 -6 5 -5 12 2 6 6 9 14 7 17 -3 3
-9 2 -12 -2z"/>
<path d="M5350 5996 c0 -2 8 -10 18 -17 15 -13 16 -12 3 4 -13 16 -21 21 -21
13z"/>
<path d="M2913 5983 c-7 -2 -13 -19 -13 -35 0 -17 2 -29 5 -26 5 5 26 69 22
67 -1 0 -8 -3 -14 -6z"/>
<path d="M7380 5940 c-8 -5 -12 -11 -9 -14 3 -3 14 1 25 9 21 16 8 20 -16 5z"/>
<path d="M7457 5936 c-12 -10 -15 -16 -7 -21 8 -5 8 -11 -1 -21 -6 -8 -8 -14
-5 -14 13 0 98 62 92 67 -3 3 -19 -5 -36 -17 -17 -12 -34 -19 -38 -15 -4 4 2
13 12 21 11 8 16 14 10 14 -5 0 -17 -7 -27 -14z"/>
<path d="M7579 5933 c-13 -16 -12 -17 4 -4 9 7 17 15 17 17 0 8 -8 3 -21 -13z"/>
<path d="M5400 5931 c0 -6 4 -13 10 -16 6 -3 7 1 4 9 -7 18 -14 21 -14 7z"/>
<path d="M7296 5914 c-4 -9 -5 -18 -3 -20 1 -2 9 1 17 6 11 7 12 12 4 20 -8 8
-13 7 -18 -6z"/>
<path d="M7967 5918 c-2 -7 -1 -22 4 -33 5 -14 8 -15 9 -5 1 8 3 23 5 33 4 19
-10 23 -18 5z"/>
<path d="M2905 5888 c-10 -26 -2 -43 12 -26 7 8 8 19 3 28 -8 12 -10 12 -15
-2z"/>
<path d="M5420 5894 c0 -7 25 -38 56 -70 31 -33 48 -45 36 -29 -32 48 -91 111
-92 99z"/>
<path d="M7370 5859 l-35 -30 38 26 c33 24 43 35 34 35 -1 0 -18 -14 -37 -31z"/>
<path d="M7436 5849 c-32 -21 -74 -50 -92 -64 -19 -14 -34 -21 -34 -16 0 6 -7
11 -15 11 -8 0 -15 -4 -15 -10 0 -5 6 -10 13 -10 8 0 7 -4 -3 -10 -8 -5 -10
-10 -4 -10 11 0 224 137 224 145 0 10 -17 2 -74 -36z"/>
<path d="M7564 5871 c-18 -11 -36 -25 -40 -33 -7 -12 14 0 71 39 30 20 4 15
-31 -6z"/>
<path d="M7293 5863 c-3 -10 -8 -21 -10 -25 -2 -4 3 -5 12 -2 9 4 13 9 11 12
-3 3 -1 11 5 19 9 9 8 13 0 13 -6 0 -14 -8 -18 -17z"/>
<path d="M7329 5863 c-13 -16 -12 -17 4 -4 16 13 21 21 13 21 -2 0 -10 -8 -17
-17z"/>
<path d="M7499 5853 c-13 -16 -12 -17 4 -4 9 7 17 15 17 17 0 8 -8 3 -21 -13z"/>
<path d="M7971 5822 c2 -21 0 -43 -5 -50 -4 -7 -3 -12 2 -12 6 0 6 -18 2 -42
-9 -55 -7 -199 3 -215 5 -7 4 -13 -2 -13 -6 0 -10 -40 -10 -97 -2 -189 -6
-288 -14 -300 -5 -8 -3 -13 4 -13 6 0 9 -8 6 -20 -3 -11 -1 -20 5 -20 5 0 1
-13 -9 -30 -9 -16 -21 -30 -26 -30 -5 0 -23 -14 -40 -32 -32 -32 -175 -128
-191 -128 -4 0 14 15 40 34 27 19 48 39 47 45 -2 5 4 8 11 5 9 -3 21 5 31 20
9 14 31 35 48 46 60 41 0 12 -73 -35 -39 -25 -74 -44 -77 -42 -2 3 13 15 34
28 49 29 153 112 148 117 -2 3 -34 -17 -70 -43 -37 -26 -68 -45 -71 -43 -2 2
15 18 37 34 22 16 51 38 63 49 12 11 17 17 12 13 -14 -11 -28 -10 -21 2 3 6 0
10 -7 10 -7 0 7 19 32 41 l45 40 -74 -45 c-41 -25 -77 -43 -80 -41 -7 8 47 61
110 107 32 23 57 43 56 44 -1 2 -40 -16 -87 -38 -47 -23 -79 -43 -72 -45 13
-5 7 -23 -9 -23 -6 0 -7 5 -4 10 16 26 -36 -1 -88 -46 -22 -18 -45 -30 -53
-27 -8 3 -20 1 -27 -3 -7 -5 -2 1 12 13 14 12 28 20 32 17 4 -2 20 6 36 19 15
12 45 31 66 42 22 11 44 27 50 35 7 8 18 16 25 18 16 3 109 62 98 62 -5 0 -25
-10 -45 -22 l-36 -21 25 27 c22 24 22 26 5 21 -20 -7 -20 -6 -1 9 11 9 24 16
30 16 5 0 7 3 4 6 -8 7 -88 -38 -88 -49 0 -4 10 -2 23 4 20 11 21 11 8 -5 -8
-9 -21 -14 -29 -11 -16 6 -44 -13 -37 -25 3 -4 -3 -7 -13 -6 -9 0 -21 6 -25
13 -6 9 -13 7 -28 -8 -11 -11 -17 -25 -13 -31 4 -7 3 -8 -5 -4 -7 5 -41 -13
-84 -45 -40 -28 -63 -42 -52 -29 11 12 47 42 80 66 33 24 71 55 84 69 12 14
27 22 32 20 10 -7 66 32 73 52 4 10 -1 9 -19 -3 -14 -9 -25 -21 -25 -26 0 -5
-4 -6 -10 -3 -5 3 -24 -1 -41 -10 -20 -11 -29 -12 -23 -4 5 9 2 11 -12 6 -10
-4 -3 6 16 23 19 16 39 30 44 30 4 0 6 7 3 15 -4 8 5 23 21 35 18 14 20 18 6
11 -11 -5 -26 -17 -33 -25 -14 -17 -68 -46 -85 -46 -6 0 4 9 23 21 18 11 31
22 28 25 -3 3 -17 -2 -31 -12 -15 -9 -29 -14 -32 -11 -3 2 10 14 28 25 50 31
82 68 67 77 -8 5 -10 4 -5 -3 4 -6 -5 -19 -21 -28 -41 -26 -83 -66 -77 -75 2
-4 -1 -11 -7 -15 -8 -5 -9 -3 -4 6 5 8 3 11 -6 8 -8 -3 -14 -11 -14 -18 0 -7
-7 -15 -15 -17 -13 -4 -13 -3 0 6 10 7 11 11 2 11 -7 0 9 20 35 45 25 25 49
45 53 45 3 0 15 7 26 16 10 8 12 13 4 9 -8 -3 1 8 20 25 l35 31 -29 -5 c-16
-3 -55 -21 -87 -41 -63 -39 -84 -46 -48 -15 13 10 20 19 16 20 -11 0 -120 -75
-136 -94 -14 -17 -36 -23 -26 -7 3 6 -3 15 -14 20 -15 8 -24 6 -43 -9 l-23
-20 34 5 c35 6 35 6 16 -15 -18 -20 -41 -28 -30 -10 3 6 2 10 -4 10 -5 0 -13
-4 -16 -10 -3 -5 -1 -10 5 -10 6 0 8 -4 5 -10 -3 -5 -2 -10 4 -10 5 0 13 5 16
10 3 6 11 10 16 10 6 0 7 -5 3 -11 -3 -6 6 -3 21 7 49 32 89 26 48 -7 -14 -12
-16 -12 -9 0 6 9 5 12 -3 10 -7 -3 -13 -9 -13 -14 -1 -13 -29 -32 -48 -32 -8
0 -35 -12 -59 -27 -48 -31 -72 -26 -28 6 15 11 27 24 27 30 0 6 -9 3 -19 -6
-11 -10 -25 -16 -32 -14 -7 2 4 15 25 27 20 13 35 26 32 29 -3 3 -1 11 5 19
16 19 1 16 -36 -7 l-33 -20 4 32 c1 18 3 39 3 47 1 8 7 11 17 7 8 -3 12 -2 9
3 -3 5 5 13 17 17 13 4 48 23 78 44 77 52 78 52 86 38 4 -7 4 -10 0 -6 -5 4
-20 -4 -35 -18 -14 -13 -34 -27 -44 -30 -9 -3 -15 -10 -12 -15 4 -5 1 -9 -5
-9 -6 0 -16 -5 -23 -11 -7 -5 -27 -19 -46 -30 -18 -11 -31 -23 -28 -26 4 -3
27 7 52 22 26 15 49 24 52 21 3 -3 24 9 47 26 67 52 74 53 23 4 -27 -25 -46
-46 -43 -46 11 0 288 179 326 211 l25 21 -38 -21 c-42 -23 -51 -26 -42 -11 4
6 -1 7 -12 4 -10 -3 -2 8 17 25 l35 31 -46 -25 c-36 -20 -46 -22 -46 -10 0 8
16 27 34 41 19 14 32 28 29 31 -6 6 -96 -66 -93 -75 2 -7 -25 -35 -71 -76 -36
-32 -25 -8 14 29 20 19 41 35 47 35 5 0 7 3 4 6 -4 4 -22 -5 -41 -20 -19 -14
-47 -30 -61 -36 -15 -6 -46 -24 -71 -41 -42 -29 -58 -28 -31 1 10 12 9 12 -6
0 -10 -7 -15 -20 -13 -27 4 -11 0 -13 -15 -8 -12 4 -30 0 -45 -10 -27 -18 -54
-14 -54 7 0 7 20 27 43 44 47 35 131 78 121 62 -4 -6 -1 -8 7 -6 8 3 13 11 11
17 -1 7 2 10 7 7 5 -3 43 19 85 49 42 30 76 51 76 47 0 -4 -36 -34 -80 -66
-74 -55 -96 -79 -53 -61 10 5 23 9 28 10 6 0 9 6 8 12 -1 6 10 13 25 16 15 4
41 18 57 32 22 18 25 23 10 19 -13 -4 -6 8 22 35 23 23 38 41 33 41 -5 0 -12
-4 -15 -10 -3 -5 -11 -10 -16 -10 -6 0 -8 4 -4 10 3 5 -7 3 -21 -5 -15 -8 -32
-12 -36 -8 -5 3 -15 -2 -21 -12 -13 -17 -52 -11 -41 6 3 5 8 8 12 6 4 -2 25
16 46 40 22 24 32 41 23 37 -29 -11 -19 2 24 32 23 15 36 30 30 32 -9 3 -8 8
1 20 12 14 11 14 -9 1 -14 -8 -18 -16 -11 -20 14 -9 -35 -41 -53 -34 -8 3 -25
-5 -39 -17 -14 -13 -20 -19 -13 -14 25 17 23 0 -3 -25 -17 -16 -27 -20 -32
-12 -5 8 -14 5 -31 -8 -14 -11 -18 -19 -10 -19 8 0 3 -9 -11 -20 -33 -26 -48
-25 -24 2 l19 21 -28 -18 c-21 -13 -25 -20 -15 -26 9 -6 0 -14 -29 -25 -24 -9
-43 -21 -43 -26 0 -4 -6 -8 -13 -8 -8 0 -14 -6 -14 -13 0 -16 99 42 205 120
41 30 76 52 78 50 3 -3 -27 -29 -66 -58 -40 -29 -67 -55 -61 -57 13 -4 5 -22
-10 -22 -6 0 -7 5 -3 11 4 7 1 10 -7 7 -8 -3 -13 -10 -12 -16 2 -6 -7 -16 -18
-23 -17 -8 -20 -8 -14 1 5 8 3 11 -6 8 -8 -3 -14 -11 -14 -19 0 -8 -7 -14 -15
-14 -8 0 -26 -9 -40 -19 -24 -17 -24 -18 -2 -11 26 8 29 -6 5 -27 -36 -31 -41
-29 -39 15 1 31 -3 42 -14 42 -10 0 -17 -14 -21 -42 -4 -35 -2 -43 10 -43 14
0 14 -2 2 -9 -12 -8 -12 -12 -2 -25 11 -13 11 -19 1 -31 -11 -13 -10 -14 6 -9
17 6 16 4 -4 -18 -12 -13 -20 -27 -17 -30 5 -5 8 -718 4 -746 -1 -4 0 -11 1
-17 1 -5 1 -37 1 -70 0 -43 2 -54 9 -40 8 19 9 19 9 -2 1 -13 -4 -23 -10 -23
-7 0 -9 -10 -7 -25 3 -14 2 -25 -2 -25 -4 0 -6 -26 -4 -57 1 -32 3 -104 3
-160 1 -93 3 -102 19 -97 16 5 16 5 0 -9 -18 -15 -25 -47 -10 -47 5 0 15 11
22 25 7 14 20 25 27 25 8 0 33 9 55 20 65 31 69 23 8 -15 -30 -19 -55 -40 -55
-47 0 -7 -9 -13 -20 -14 -42 -2 -45 -4 -45 -40 0 -25 3 -33 13 -28 8 5 8 2 -2
-9 -11 -14 -11 -17 1 -17 8 0 19 5 25 11 5 5 28 12 50 14 22 2 64 15 93 30 29
14 49 22 46 17 -3 -6 -1 -12 5 -14 6 -2 -13 -17 -41 -32 -29 -16 -50 -24 -46
-17 9 14 -5 14 -25 -2 -9 -7 -16 -19 -16 -28 0 -14 9 -12 56 11 53 27 78 30
66 9 -4 -5 -13 -9 -21 -9 -8 0 -14 -5 -14 -11 0 -6 -10 -8 -22 -5 -13 3 -17 3
-10 0 10 -5 10 -9 1 -20 -21 -26 0 -28 46 -6 58 28 58 21 0 -12 -42 -23 -82
-26 -69 -5 3 5 0 9 -6 9 -7 0 -10 -6 -7 -12 2 -7 -12 -23 -32 -35 -20 -12 -31
-22 -26 -23 6 0 25 9 44 21 41 25 52 19 15 -10 -32 -25 -28 -26 14 -5 18 8 36
13 41 10 5 -4 21 -2 36 4 17 7 24 7 20 0 -9 -14 5 -12 35 5 33 19 49 19 24 0
-19 -15 -19 -15 1 -9 15 5 12 -1 -10 -20 -16 -14 -36 -25 -42 -26 -7 0 -13 -7
-13 -15 0 -7 -8 -19 -17 -24 -15 -9 -15 -10 -3 -11 9 0 20 4 25 8 13 10 65 33
65 28 0 -2 -15 -14 -32 -26 l-33 -22 33 6 c17 3 32 4 32 2 0 -2 -24 -18 -52
-34 -29 -17 -62 -37 -73 -46 -18 -14 -16 -14 20 0 22 9 49 23 60 30 11 8 29
14 40 13 19 0 19 -1 -2 -11 -13 -6 -23 -15 -23 -20 0 -5 6 -6 13 -3 13 7 -14
-16 -48 -40 l-20 -15 20 7 c11 3 25 10 31 15 6 4 20 6 30 2 14 -4 15 -3 6 4
-11 7 -11 10 3 15 9 4 13 3 10 -3 -6 -10 7 -14 35 -11 13 2 13 1 0 -9 -32 -23
-53 -32 -46 -21 11 17 -10 13 -24 -4 -7 -8 -9 -15 -5 -15 5 0 0 -10 -11 -21
l-19 -22 25 13 c14 7 42 24 62 37 56 34 56 28 1 -13 -67 -51 -73 -58 -43 -50
l25 7 -25 -16 -25 -16 24 7 c16 4 21 3 17 -5 -9 -14 0 -14 26 0 11 6 22 8 24
6 3 -3 -20 -19 -50 -37 -31 -17 -56 -33 -56 -35 0 -7 86 30 187 80 120 60 126
55 10 -9 -92 -51 -123 -71 -94 -62 9 3 24 3 32 0 11 -5 8 -11 -14 -30 -16 -13
-34 -24 -40 -24 -6 0 -11 -4 -11 -9 0 -11 -39 -26 -60 -23 -13 3 -13 2 0 -7
12 -9 13 -11 1 -11 -8 0 -12 -3 -9 -6 7 -7 142 55 146 67 2 5 13 14 25 20 18
9 16 5 -8 -20 -16 -17 -53 -43 -83 -58 -29 -14 -51 -28 -48 -30 2 -2 19 3 38
13 41 22 163 65 152 54 -20 -19 -100 -57 -111 -53 -7 3 -13 -2 -13 -11 0 -9
-5 -16 -11 -16 -5 0 -7 5 -3 12 5 7 3 8 -5 4 -7 -5 -10 -10 -7 -14 3 -3 -2
-11 -12 -19 -16 -12 -16 -13 2 -6 14 5 17 3 11 -7 -10 -15 1 -10 59 32 40 29
78 40 41 12 -11 -8 -20 -19 -20 -24 0 -4 -4 -12 -9 -17 -5 -5 -6 -3 -2 5 4 6
4 12 -1 12 -4 0 -13 -11 -20 -25 -6 -14 -10 -25 -9 -25 7 0 194 104 217 121
38 27 46 24 12 -4 -30 -25 -187 -119 -215 -130 -10 -3 -18 -11 -18 -18 0 -6 8
-9 18 -5 16 6 16 5 0 -8 -10 -7 -18 -17 -18 -22 0 -5 -12 -10 -28 -11 l-27 -1
28 15 c16 8 26 17 23 20 -3 3 -20 -4 -38 -16 -18 -11 -26 -21 -18 -21 11 -1
10 -4 -4 -15 -24 -18 -13 -20 17 -3 12 7 31 13 42 15 11 1 34 5 50 9 l30 7
-28 -27 c-15 -14 -41 -33 -58 -41 -16 -9 -29 -17 -29 -20 0 -2 56 23 125 55
127 60 172 74 67 21 -32 -16 -64 -36 -71 -45 -8 -9 -18 -16 -24 -16 -17 0
-115 -49 -123 -62 -5 -7 -2 -9 7 -4 8 4 3 -2 -11 -13 l-25 -21 25 9 c14 5 45
21 70 35 50 29 74 34 44 10 -18 -15 -18 -15 3 -5 12 6 23 14 25 19 6 15 76 53
74 40 -3 -25 -18 -38 -64 -63 -26 -13 -40 -24 -32 -25 13 0 13 -1 0 -11 -12
-8 -11 -9 5 -6 11 2 19 9 17 15 -2 13 -1 14 42 16 24 2 26 0 12 -9 -10 -5 -25
-16 -34 -23 -14 -10 -12 -10 11 -2 40 14 33 3 -14 -20 -23 -12 -47 -19 -55
-16 -8 3 -14 1 -14 -4 0 -6 -3 -9 -7 -8 -9 2 -93 -40 -93 -47 0 -2 6 -2 13 0
6 3 26 6 42 8 17 2 63 20 102 40 40 20 76 37 80 37 12 0 -83 -59 -167 -103
-84 -44 -58 -40 35 5 45 22 54 24 35 8 -14 -11 -44 -30 -67 -42 -49 -24 -51
-32 -6 -19 26 8 31 6 29 -7 -2 -9 -9 -18 -17 -20 -11 -3 -11 -1 1 8 12 9 10
10 -10 4 -14 -3 -38 -13 -55 -20 -27 -13 -28 -14 -5 -10 14 2 34 7 45 11 16 6
15 3 -5 -14 -19 -16 -9 -14 46 11 39 18 67 36 62 39 -5 3 3 11 17 17 32 15 32
15 32 -2 0 -8 -6 -12 -15 -8 -9 3 -13 1 -9 -4 3 -6 -41 -34 -99 -63 -57 -29
-102 -57 -98 -62 5 -9 -6 -12 -41 -10 -19 1 -19 0 1 -8 14 -6 34 -5 59 3 37
13 35 31 -2 21 -10 -3 -8 0 5 7 19 9 25 9 32 -1 4 -8 13 -10 19 -7 6 4 11 4
11 1 0 -3 -24 -18 -52 -32 -29 -13 -73 -36 -98 -49 -25 -13 -55 -24 -68 -24
-12 0 -25 -7 -28 -15 -4 -8 -10 -13 -15 -10 -4 3 -13 -4 -19 -16 -13 -23 -5
-21 30 5 8 7 42 23 75 36 33 13 62 26 65 30 8 10 214 98 219 94 8 -8 -32 -34
-114 -74 -44 -21 -74 -39 -66 -40 7 0 42 14 77 31 36 17 70 28 77 26 7 -2 29
4 50 15 60 30 54 14 -7 -21 -31 -17 -58 -31 -60 -31 -2 0 -35 -18 -72 -40 -88
-51 -76 -51 27 0 44 23 85 38 91 34 7 -4 8 -3 4 4 -5 8 -1 10 10 5 11 -4 15
-3 10 5 -7 11 31 38 41 29 2 -3 -5 -8 -18 -12 -16 -5 -18 -9 -9 -15 10 -6 3
-14 -22 -27 -19 -10 -60 -31 -91 -48 -32 -16 -57 -33 -57 -37 0 -5 9 -4 20 2
12 6 30 8 41 5 26 -9 18 -17 -21 -21 -17 -2 -39 -9 -48 -15 -15 -9 -14 -10 6
-6 12 3 22 1 22 -4 0 -5 23 2 52 17 28 14 63 27 77 29 14 1 35 6 45 10 13 6
17 5 13 -2 -4 -6 -28 -16 -54 -23 -27 -7 -57 -20 -68 -28 -14 -10 -15 -13 -3
-9 9 3 19 0 22 -9 4 -9 -2 -14 -17 -14 -20 -1 -20 -2 -4 -11 9 -5 23 -7 30 -3
9 5 9 4 1 -5 -6 -7 -20 -13 -32 -14 -11 0 -18 -5 -16 -9 3 -5 -5 -13 -18 -18
-20 -9 -19 -10 7 -4 17 4 43 8 58 10 16 2 34 7 40 11 7 4 6 -1 -2 -10 -12 -15
-10 -17 16 -17 17 0 40 9 53 20 29 25 49 26 27 2 -19 -21 -22 -42 -6 -42 5 0
7 -4 4 -10 -3 -5 -11 -10 -16 -10 -6 0 -7 5 -3 12 5 8 2 9 -12 3 -10 -4 -39
-9 -64 -11 -65 -3 -63 -3 -90 -24 l-25 -19 40 5 c30 4 36 3 25 -5 -13 -9 -13
-11 2 -11 9 0 22 8 27 17 10 17 10 17 11 0 0 -17 1 -17 16 -3 18 18 39 22 28
5 -9 -15 53 -2 83 17 37 24 39 16 2 -12 -19 -15 -25 -23 -14 -19 11 4 37 9 58
12 24 4 45 15 57 31 20 24 20 46 20 1263 0 977 -3 1239 -13 1239 -9 0 -9 2 0
8 10 6 12 84 8 343 -2 183 -5 339 -6 344 0 6 2 29 5 53 4 28 2 41 -4 37 -6 -4
-7 2 -1 17 4 13 7 34 5 48 -4 32 -6 112 -4 125 4 20 0 35 -11 35 -6 0 -9 -16
-8 -38z m-356 -72 c-3 -5 -11 -10 -16 -10 -6 0 -7 5 -4 10 3 6 11 10 16 10 6
0 7 -4 4 -10z m-90 -70 c-3 -5 -11 -10 -16 -10 -6 0 -7 5 -4 10 3 6 11 10 16
10 6 0 7 -4 4 -10z m4 -86 c-13 -16 -130 -77 -136 -71 -2 2 22 17 53 33 31 16
60 35 66 42 6 6 15 12 20 12 6 0 4 -7 -3 -16z m101 -9 c-7 -8 -17 -15 -22 -15
-6 0 -5 7 2 15 7 8 17 15 22 15 6 0 5 -7 -2 -15z m95 -65 c-11 -17 -65 -41
-77 -34 -6 4 -8 3 -4 -4 3 -5 -9 -20 -28 -31 -46 -29 -49 -26 -13 14 17 19 36
35 43 35 6 0 17 7 24 15 14 17 65 21 55 5z m-320 -109 c-6 -6 -26 -17 -47 -25
-31 -13 -37 -13 -42 -1 -3 8 0 12 8 9 6 -2 28 2 47 10 41 18 46 19 34 7z m198
-58 c-7 -19 -25 -36 -55 -54 -36 -20 -19 17 19 44 45 32 44 32 36 10z m87 -78
c0 -2 -25 -23 -55 -46 -30 -23 -53 -45 -50 -49 2 -4 -15 -18 -39 -31 -25 -13
-42 -28 -39 -35 2 -7 -4 -15 -14 -18 -10 -3 -34 -20 -53 -38 -19 -18 -39 -31
-43 -30 -5 1 -6 -2 -3 -7 8 -12 -43 -53 -57 -44 -6 3 -7 1 -3 -5 4 -7 3 -12
-3 -12 -40 0 -6 44 77 100 62 42 82 61 40 39 -13 -7 -36 -22 -53 -34 -35 -26
-81 -43 -71 -26 4 6 11 11 17 11 11 0 239 148 239 155 0 3 -18 -7 -40 -21 -22
-15 -43 -25 -46 -22 -6 6 53 45 76 50 8 2 35 18 60 35 43 31 60 39 60 28z
m-157 -58 c-21 -19 -49 -41 -63 -51 l-25 -18 24 7 c16 5 21 4 17 -4 -4 -6 -13
-11 -20 -11 -8 0 -19 -7 -26 -15 -14 -17 -35 -21 -25 -5 3 6 -1 7 -9 4 -8 -3
-18 -14 -21 -24 -8 -24 -42 -32 -50 -12 -3 8 -3 17 0 20 3 3 5 0 5 -6 0 -6 6
-9 14 -6 8 3 12 12 10 19 -3 7 0 16 6 20 21 13 -11 25 -34 14 -23 -12 48 55
77 72 13 7 17 7 15 -3 -2 -7 4 -12 12 -10 9 2 2 -10 -14 -27 -16 -17 -28 -33
-25 -35 2 -2 38 20 79 49 86 61 106 69 53 22z m136 -31 c-13 -11 -89 -55 -89
-51 0 7 73 55 84 55 5 0 7 -2 5 -4z m61 -40 c0 -2 -8 -10 -17 -17 -16 -13 -17
-12 -4 4 13 16 21 21 21 13z m-165 -26 c-3 -5 -12 -10 -18 -10 -7 0 -6 4 3 10
19 12 23 12 15 0z m-51 -37 c-38 -34 -84 -64 -84 -54 0 5 21 23 47 40 52 35
67 40 37 14z m281 -53 c-10 -11 -21 -18 -23 -15 -3 3 3 12 14 20 27 20 30 18
9 -5z m-285 5 c0 -6 -108 -78 -147 -99 -51 -26 -42 4 12 42 49 35 60 39 50 20
-4 -7 2 -3 12 8 18 22 37 32 61 33 6 1 12 -1 12 -4z m58 -45 c-15 -23 -65 -53
-77 -46 -5 4 -24 -6 -43 -21 -18 -14 -25 -18 -16 -8 63 68 168 127 136 75z
m392 -24 c0 -8 -13 -19 -30 -25 -16 -5 -30 -12 -30 -15 0 -3 12 -1 28 5 l27
10 -30 -25 c-33 -27 -50 -25 -35 4 9 16 57 60 66 60 2 0 4 -6 4 -14z m-539
-30 c5 3 9 3 9 0 0 -9 -111 -59 -117 -53 -3 3 17 20 43 37 27 17 50 26 52 20
2 -5 8 -8 13 -4z m254 -16 c-4 -6 -30 -25 -58 -44 -29 -18 -61 -43 -71 -55
-11 -11 -26 -21 -35 -21 -13 1 -12 4 4 16 11 8 29 22 40 32 19 16 117 81 123
82 2 0 0 -5 -3 -10z m-200 -20 c-9 -10 -39 -34 -66 -52 -27 -18 -49 -36 -49
-40 0 -8 29 1 47 14 14 11 85 48 92 48 2 0 -16 -15 -40 -34 -23 -19 -45 -34
-48 -33 -4 1 -17 -5 -30 -12 -19 -10 -21 -15 -10 -22 11 -7 11 -9 -3 -9 -9 0
-25 -3 -35 -6 -17 -5 -17 -5 1 10 10 8 15 20 11 26 -6 9 -10 9 -16 -1 -7 -11
-9 -11 -9 2 0 14 74 76 93 77 4 1 22 12 38 26 36 31 49 34 24 6z m484 -8 c-6
-18 -26 -38 -51 -52 -35 -19 -38 -24 -23 -32 12 -8 23 -4 41 13 13 12 26 20
29 17 3 -3 -6 -13 -21 -22 -30 -20 -26 -33 5 -16 35 18 23 -3 -14 -27 -43 -28
-54 -29 -30 -3 20 22 8 28 -15 8 -12 -11 -12 -10 -1 5 17 21 8 22 -27 1 l-27
-16 25 22 25 23 -25 -8 c-14 -4 -32 -13 -40 -20 -8 -6 -22 -16 -30 -20 -13 -8
-13 -7 -1 8 8 10 9 17 3 17 -6 0 -14 -4 -17 -10 -3 -5 -16 -15 -28 -20 -20
-10 -20 -10 -4 3 9 8 17 19 17 26 0 6 5 11 11 11 6 0 29 13 52 29 23 15 51 31
62 35 11 3 34 17 50 31 39 32 46 31 34 -3z m-85 1 c4 -10 4 -14 0 -11 -3 4
-25 -2 -48 -14 -22 -11 -38 -17 -34 -13 6 6 70 53 74 55 1 0 5 -8 8 -17z
m-206 -28 c-11 -10 -135 -103 -145 -109 -7 -4 -13 -5 -13 -2 0 3 30 28 68 57
37 28 66 55 65 60 -2 4 4 6 13 2 8 -3 14 -7 12 -8z m-28 -60 c0 -2 -10 -10
-22 -16 -21 -11 -22 -11 -9 4 13 16 31 23 31 12z m-147 -25 c-28 -25 -162
-110 -172 -110 -21 0 -2 19 41 41 22 11 38 23 35 26 -3 3 -16 -2 -29 -11 -12
-9 -31 -16 -41 -16 -16 0 -17 2 -7 15 7 9 19 14 25 11 7 -2 30 7 51 21 34 23
37 24 20 5 -29 -33 -2 -26 30 7 15 16 33 27 41 24 8 -3 11 -9 6 -13z m161 -17
c-45 -37 -73 -48 -34 -13 19 17 34 35 33 40 -2 5 5 6 14 3 14 -5 11 -10 -13
-30z m306 -1 c0 -10 -13 -26 -30 -35 -16 -10 -30 -15 -30 -12 0 8 -78 -46
-113 -79 -15 -14 -31 -26 -35 -26 -19 2 185 170 205 170 2 0 3 -8 3 -18z m-90
-12 c0 -5 -7 -10 -15 -10 -8 0 -15 -4 -15 -10 0 -5 -5 -10 -12 -10 -6 0 -3 9
7 20 20 22 35 26 35 10z m-320 -25 c0 -3 -19 -17 -42 -31 -24 -15 -45 -30 -48
-34 -19 -29 -95 -80 -110 -75 -10 3 -21 1 -25 -5 -3 -5 -1 -10 6 -10 10 0 10
-3 2 -11 -9 -9 -16 -7 -29 6 -15 14 -15 18 -3 26 8 5 17 9 21 9 4 0 5 7 1 16
-3 9 -12 13 -22 10 -20 -7 28 33 69 57 45 27 36 11 -11 -19 -22 -14 -38 -28
-36 -31 3 -3 26 8 51 25 25 17 42 24 39 16 -3 -7 -20 -23 -39 -35 -19 -11 -34
-23 -34 -26 0 -3 17 5 38 17 20 13 51 30 67 40 17 9 46 27 65 38 38 24 40 25
40 17z m380 -56 c-19 -16 -39 -29 -45 -29 -5 1 3 11 19 24 15 13 24 26 20 28
-5 3 -4 3 3 2 7 -2 15 1 19 7 3 6 9 7 13 4 3 -4 -10 -20 -29 -36z m23 -24 c-3
-9 -20 -23 -37 -31 l-31 -15 35 31 c39 35 41 35 33 15z m-447 -20 c-2 -13
-171 -145 -187 -145 -3 0 -6 8 -6 18 0 18 34 62 50 62 5 0 22 10 39 21 23 17
93 56 105 59 1 0 0 -7 -1 -15z m164 -12 c0 -10 -70 -56 -76 -50 -2 2 13 16 33
30 44 30 43 29 43 20z m-146 -27 c-10 -8 -21 -12 -23 -10 -3 2 4 11 15 18 10
8 21 12 23 10 3 -2 -4 -11 -15 -18z m206 -11 c0 -2 -10 -9 -22 -15 -22 -11
-22 -10 -4 4 21 17 26 19 26 11z m-240 -9 c0 -5 -168 -126 -175 -126 -19 0 3
24 48 53 106 68 127 81 127 73z m-41 -63 l-24 -26 40 23 c32 19 37 20 25 6 -8
-10 -38 -32 -68 -48 -35 -21 -51 -35 -48 -45 3 -8 2 -12 -3 -8 -13 7 -41 -5
-41 -19 0 -6 -10 -17 -22 -25 -22 -13 -22 -13 -7 5 9 10 14 24 12 31 -2 6 8
20 22 30 14 10 49 37 78 60 60 49 70 54 36 16z m472 -1 c-19 -15 -44 -31 -55
-35 -24 -10 -22 -6 29 32 50 37 72 40 26 3z m29 -17 c-7 -8 -17 -15 -22 -15
-6 0 -5 7 2 15 7 8 17 15 22 15 6 0 5 -7 -2 -15z m-505 -40 c-20 -15 -39 -24
-42 -22 -5 5 58 47 71 47 5 0 -8 -11 -29 -25z m105 0 c-7 -8 -17 -15 -23 -15
-6 0 -2 7 9 15 25 19 30 19 14 0z m-57 -19 c-10 -12 -39 -38 -64 -57 -26 -19
-46 -35 -45 -37 2 -1 25 9 52 24 l49 26 -35 -31 c-38 -34 -28 -43 13 -11 14
11 28 16 31 11 6 -10 -14 -23 -126 -84 -73 -41 -87 -45 -67 -21 16 20 18 67 2
74 -7 3 2 18 24 39 32 30 34 31 28 10 -7 -23 -7 -23 12 -6 11 9 22 14 26 11 6
-6 59 28 89 58 26 26 32 22 11 -6z m347 20 c0 -3 -15 -14 -32 -26 l-33 -22 30
26 c31 27 35 29 35 22z m-185 -55 c-24 -21 -233 -151 -245 -151 -4 0 -10 -7
-14 -15 -3 -8 -12 -15 -19 -15 -8 0 -22 -9 -32 -20 -19 -21 -7 -28 13 -8 9 9
12 9 12 0 0 -6 -9 -16 -20 -22 -11 -6 -18 -15 -15 -21 4 -5 -4 -9 -17 -9 -16
0 -19 3 -10 9 16 9 6 61 -12 61 -6 0 3 9 19 20 17 11 35 18 42 15 7 -2 15 1
19 7 5 7 2 8 -6 3 -9 -5 -11 -4 -6 4 4 6 11 9 16 6 15 -9 72 19 181 89 106 68
127 79 94 47z m280 -16 c-16 -14 -34 -25 -39 -25 -5 0 -18 -7 -28 -17 -10 -9
-18 -13 -18 -10 0 9 93 77 105 76 6 0 -3 -11 -20 -24z m17 -27 c-13 -15 -72
-51 -72 -44 0 5 71 56 79 56 2 0 -1 -6 -7 -12z m-12 -36 c0 -4 -15 -16 -32
-26 l-33 -18 30 26 c34 28 35 29 35 18z m10 -36 c0 -8 -61 -48 -66 -43 -3 2
10 14 28 26 35 22 38 23 38 17z m-440 -19 c-8 -8 -37 -26 -65 -41 -50 -27 -40
-16 25 29 38 25 63 33 40 12z m300 9 c0 -2 -7 -7 -16 -10 -8 -3 -12 -2 -9 4 6
10 25 14 25 6z m-358 -106 c-18 -11 -36 -20 -41 -20 -5 0 -14 -7 -22 -16 -7
-8 -25 -22 -39 -29 -24 -12 -30 -12 -46 1 -11 8 -14 14 -9 13 16 -2 51 11 107
42 60 32 100 39 50 9z m138 16 c0 -2 -8 -10 -17 -17 -16 -13 -17 -12 -4 4 13
16 21 21 21 13z m-60 -110 c0 -2 -36 -24 -80 -50 -44 -25 -80 -49 -80 -51 0
-3 9 -1 19 5 26 13 52 13 29 0 -9 -6 -38 -13 -63 -16 -36 -4 -46 -2 -43 8 4
13 24 27 105 76 l38 23 -28 -26 c-37 -33 -22 -32 44 5 57 31 59 32 59 26z m40
-1 c0 -2 -10 -9 -22 -15 -22 -11 -22 -10 -4 4 21 17 26 19 26 11z m45 -35 c-3
-5 -12 -10 -18 -10 -7 0 -6 4 3 10 19 12 23 12 15 0z m-65 -85 c0 -2 -6 -5
-13 -8 -8 -3 -14 1 -14 8 0 7 6 11 14 8 7 -3 13 -6 13 -8z m190 -240 c0 -2
-13 -11 -30 -20 -38 -19 -40 -11 -2 9 31 17 32 18 32 11z m110 0 c0 -2 -10 -9
-22 -15 -22 -11 -22 -10 -4 4 21 17 26 19 26 11z m-180 -39 c0 -2 -7 -7 -16
-10 -8 -3 -12 -2 -9 4 6 10 25 14 25 6z m84 -20 c-21 -15 -30 -14 -19 3 3 6
14 11 23 11 13 0 13 -2 -4 -14z m21 -36 c-3 -5 -12 -10 -18 -10 -7 0 -6 4 3
10 19 12 23 12 15 0z m-137 -66 c-34 -18 -37 -38 -5 -29 20 5 20 5 4 -6 -14
-8 -22 -8 -30 1 -9 9 -6 16 12 31 13 10 28 19 35 19 6 -1 -1 -8 -16 -16z m142
-48 c0 -8 -111 -68 -116 -64 -2 3 22 19 53 36 62 34 63 34 63 28z m174 -71
c-4 -8 -16 -15 -28 -15 -21 1 -21 1 -2 15 25 19 37 19 30 0z m-154 -29 c0 -2
-8 -10 -17 -17 -16 -13 -17 -12 -4 4 13 16 21 21 21 13z m110 -6 c-35 -24 -54
-31 -30 -11 14 11 30 21 35 21 6 0 3 -5 -5 -10z m-185 -20 c-3 -5 -11 -10 -16
-10 -6 0 -7 5 -4 10 3 6 11 10 16 10 6 0 7 -4 4 -10z m215 6 c0 -2 -7 -7 -16
-10 -8 -3 -12 -2 -9 4 6 10 25 14 25 6z m-90 -21 c0 -2 -10 -9 -22 -15 -22
-11 -22 -10 -4 4 21 17 26 19 26 11z m-105 -65 c-3 -5 -12 -10 -18 -10 -7 0
-6 4 3 10 19 12 23 12 15 0z m145 -70 c-24 -15 -37 -11 -16 5 11 8 22 12 25 9
3 -3 -1 -9 -9 -14z m-120 1 c0 -11 -69 -55 -76 -49 -2 3 13 17 33 31 44 30 43
30 43 18z m90 -345 c0 -7 -66 -46 -76 -46 -5 0 0 6 11 12 19 11 19 11 0 20
-16 7 -15 7 5 4 14 -3 32 -1 40 4 17 11 20 12 20 6z m-75 -76 c-3 -5 -12 -10
-18 -10 -7 0 -6 4 3 10 19 12 23 12 15 0z m-41 -21 c-5 -9 2 -10 22 -6 16 4 5
-4 -26 -19 -32 -14 -64 -23 -77 -19 -12 3 -25 1 -28 -5 -3 -5 -11 -10 -18 -10
-22 0 18 29 68 49 59 23 69 25 59 10z m116 -34 c-14 -8 -29 -14 -35 -14 -5 0
1 6 15 14 14 8 30 14 35 14 6 0 -1 -6 -15 -14z m-81 -28 c-2 -1 -13 -9 -24
-17 -19 -14 -19 -14 -6 3 7 9 18 17 24 17 6 0 8 -1 6 -3z m17 -136 c-3 -5 -26
-15 -50 -22 -25 -7 -42 -17 -40 -21 7 -11 -8 -10 -26 2 -13 8 -13 9 0 13 11 3
93 28 118 36 2 1 1 -3 -2 -8z m34 -106 c0 -8 -91 -57 -96 -52 -3 3 16 17 43
31 54 28 53 28 53 21z"/>
<path d="M7832 4823 c-24 -14 -41 -27 -38 -30 2 -2 26 9 52 26 59 37 47 41
-14 4z"/>
<path d="M7412 4570 c-70 -49 -101 -79 -44 -43 70 45 134 93 125 93 -5 0 -42
-23 -81 -50z"/>
<path d="M7378 4304 c-16 -8 -28 -17 -28 -19 0 -10 16 -4 40 15 30 23 25 25
-12 4z"/>
<path d="M7380 3999 c0 -5 5 -7 10 -4 6 3 10 8 10 11 0 2 -4 4 -10 4 -5 0 -10
-5 -10 -11z"/>
<path d="M7690 2754 l-25 -15 25 7 c14 3 32 10 40 15 13 7 13 8 0 8 -8 0 -26
-6 -40 -15z"/>
<path d="M2900 5760 c0 -63 3 -78 14 -74 16 6 18 56 2 66 -8 6 -7 8 2 8 6 0
12 7 12 15 0 8 -5 15 -12 15 -9 0 -9 3 0 12 17 17 15 38 -3 38 -12 0 -15 -16
-15 -80z"/>
<path d="M7593 5820 c-18 -11 -33 -22 -33 -25 0 -8 58 23 65 35 9 14 5 13 -32
-10z"/>
<path d="M5550 5826 c0 -2 8 -10 18 -17 15 -13 16 -12 3 4 -13 16 -21 21 -21
13z"/>
<path d="M7451 5791 c-70 -51 -75 -56 -51 -58 12 -1 26 6 32 17 6 10 18 16 26
12 11 -4 9 -9 -9 -25 l-24 -19 25 15 c14 8 24 21 22 27 -1 7 3 10 10 7 20 -7
72 33 59 46 -7 7 -21 2 -45 -16 -47 -36 -59 -34 -16 3 49 41 35 37 -29 -9z"/>
<path d="M5670 5745 c13 -14 26 -25 28 -25 3 0 -5 11 -18 25 -13 14 -26 25
-28 25 -3 0 5 -11 18 -25z"/>
<path d="M7530 5750 c-14 -11 -30 -20 -37 -20 -18 0 -78 -58 -69 -67 4 -4 13
-1 19 7 7 8 31 28 54 44 38 25 72 56 62 56 -2 0 -15 -9 -29 -20z"/>
<path d="M7699 5753 c-13 -17 -13 -17 6 -3 11 8 22 16 24 17 2 2 0 3 -6 3 -6
0 -17 -8 -24 -17z"/>
<path d="M5638 5728 c30 -42 83 -101 87 -97 2 2 -22 31 -52 64 -30 33 -46 48
-35 33z"/>
<path d="M7290 5715 c-6 -8 -10 -19 -8 -24 1 -6 8 1 15 14 13 28 11 31 -7 10z"/>
<path d="M7657 5711 c-4 -17 -3 -21 5 -13 5 5 8 16 6 23 -3 8 -7 3 -11 -10z"/>
<path d="M7375 5690 c-3 -5 1 -10 9 -10 9 0 16 5 16 10 0 6 -4 10 -9 10 -6 0
-13 -4 -16 -10z"/>
<path d="M2912 5668 c-14 -14 -16 -28 -3 -28 9 0 24 30 18 36 -2 2 -9 -2 -15
-8z"/>
<path d="M7299 5678 c-2 -12 -5 -22 -11 -38 -15 -39 -17 -80 -4 -80 24 0 39
26 27 49 -9 16 -7 24 11 42 13 12 17 18 9 14 -8 -4 -17 -2 -22 6 -5 8 -9 11
-10 7z"/>
<path d="M7360 5630 l-35 -31 42 23 c24 13 43 26 43 31 0 14 -16 7 -50 -23z"/>
<path d="M7700 5640 c-9 -6 -10 -10 -3 -10 6 0 15 5 18 10 8 12 4 12 -15 0z"/>
<path d="M2905 5620 c-3 -5 -5 -43 -4 -83 1 -41 -1 -80 -5 -86 -5 -7 1 -11 13
-11 16 0 21 6 21 25 0 14 -5 25 -12 25 -9 0 -9 3 0 12 16 16 15 68 0 68 -9 0
-8 4 2 10 13 9 13 11 0 20 -10 6 -11 10 -2 10 6 0 12 5 12 10 0 13 -17 13 -25
0z"/>
<path d="M7448 5513 c-10 -2 -18 -9 -18 -14 0 -6 8 -5 20 1 11 6 20 13 20 15
0 3 -1 4 -2 4 -2 -1 -11 -3 -20 -6z"/>
<path d="M7765 5510 c-3 -5 -35 -26 -71 -46 -36 -20 -63 -38 -61 -41 7 -6 99
47 127 73 13 13 22 24 18 24 -4 0 -10 -4 -13 -10z"/>
<path d="M5860 5506 c0 -2 8 -10 18 -17 15 -13 16 -12 3 4 -13 16 -21 21 -21
13z"/>
<path d="M7472 5498 c-19 -19 -14 -29 8 -16 20 13 27 28 12 28 -4 0 -13 -5
-20 -12z"/>
<path d="M5840 5485 c27 -36 50 -59 55 -54 2 3 -12 21 -32 40 -21 19 -31 25
-23 14z"/>
<path d="M7410 5482 c0 -5 -12 -14 -26 -21 -15 -6 -24 -14 -22 -17 9 -9 58 19
58 33 0 7 -2 13 -5 13 -3 0 -5 -4 -5 -8z"/>
<path d="M5983 5453 c9 -2 18 -9 18 -14 4 -29 20 -59 31 -59 5 0 6 5 2 12 -5
7 -3 8 5 4 7 -5 10 -14 7 -21 -4 -12 11 -35 24 -35 3 0 6 8 7 19 2 21 -78 102
-99 100 -7 -1 -5 -3 5 -6z"/>
<path d="M2899 5383 c0 -27 -2 -95 -3 -153 -1 -58 -5 -110 -9 -117 -4 -6 -3
-14 3 -18 10 -6 7 -76 -5 -94 -3 -6 -3 -11 2 -11 14 0 3 -446 -12 -470 -3 -5
-15 -10 -25 -10 -10 0 -22 -5 -26 -11 -8 -13 35 -3 50 12 14 13 28 11 20 -2
-4 -7 -7 -21 -8 -33 -1 -11 -10 -25 -22 -31 -20 -10 -22 -35 -3 -35 6 0 7 5 3
11 -4 7 -1 10 7 7 15 -5 13 -51 -3 -57 -5 -1 -28 -17 -51 -35 -65 -49 -117
-79 -117 -67 0 7 -17 3 -41 -9 -23 -12 -44 -19 -47 -15 -3 3 3 8 15 11 14 4
20 12 18 25 -3 14 13 28 68 58 40 22 84 52 97 66 25 27 24 27 -25 -4 -101 -62
-105 -63 -105 -46 0 9 15 22 33 30 17 8 43 24 57 35 18 15 8 13 -39 -10 -34
-17 -65 -30 -67 -28 -2 2 26 21 61 42 36 21 70 47 76 58 11 20 11 20 -18 0
-83 -58 -233 -147 -233 -138 0 3 -47 -26 -105 -64 -57 -39 -108 -70 -112 -70
-4 0 -21 -12 -38 -26 -28 -23 -28 -24 -6 -18 13 3 42 19 65 34 22 15 64 41 91
58 28 17 57 37 65 45 19 18 40 30 40 23 0 -3 -10 -14 -22 -26 -30 -28 -12 -25
26 4 33 25 96 59 96 52 0 -2 -23 -21 -52 -43 -59 -44 -53 -40 -136 -88 -35
-21 -61 -39 -58 -42 3 -3 26 7 51 21 25 15 45 24 45 21 0 -3 23 6 51 21 28 14
53 24 55 21 4 -4 -94 -60 -98 -56 -2 2 -33 -14 -70 -34 -72 -40 -83 -44 -72
-25 4 7 3 8 -5 4 -6 -4 -9 -10 -7 -14 6 -10 -16 -37 -36 -45 -9 -3 -18 -1 -20
5 -3 7 -9 5 -19 -4 -19 -20 -59 -41 -66 -35 -6 7 50 48 123 91 55 32 96 66 80
66 -3 0 -31 -16 -60 -36 -30 -19 -61 -37 -70 -38 -9 -1 -23 -11 -32 -22 -8
-10 -13 -14 -10 -8 7 14 -16 25 -31 16 -5 -4 -9 -17 -8 -29 1 -13 -4 -23 -12
-23 -7 0 -13 -5 -13 -11 0 -5 3 -8 8 -6 4 3 12 -1 19 -8 9 -10 8 -17 -8 -31
-25 -22 -29 -120 -4 -110 8 3 15 1 15 -5 0 -5 -7 -12 -15 -15 -8 -4 -15 -13
-15 -20 0 -11 12 -8 48 13 26 15 52 33 57 40 6 8 15 9 24 4 10 -6 2 -16 -30
-38 -24 -17 -55 -34 -68 -38 -22 -7 -23 -9 -9 -19 15 -11 15 -13 -3 -24 -10
-7 -19 -17 -19 -23 0 -8 5 -7 15 1 11 9 15 9 15 1 0 -6 -7 -14 -15 -17 -8 -4
-15 -12 -15 -20 0 -11 5 -11 25 -2 14 6 23 14 20 16 -5 5 54 42 89 55 13 5 9
-2 -12 -24 -17 -17 -35 -28 -41 -24 -6 3 -11 -1 -11 -9 0 -9 -6 -16 -14 -16
-8 0 -24 -9 -37 -21 -21 -18 -22 -20 -4 -15 20 6 20 6 1 -9 -33 -25 -12 -26
25 -1 19 12 47 26 63 30 19 5 26 10 18 15 -8 5 2 15 29 31 23 12 38 17 34 10
-6 -10 -3 -12 11 -7 15 6 14 3 -5 -13 -17 -15 -26 -17 -32 -9 -4 6 -12 8 -19
4 -9 -5 -9 -9 -1 -14 6 -4 -18 -22 -54 -40 -35 -18 -70 -40 -77 -49 -10 -12
-10 -14 0 -8 6 4 12 2 12 -3 0 -6 -6 -11 -12 -11 -9 0 -8 -4 2 -10 10 -6 11
-10 3 -10 -7 0 -13 -5 -13 -11 0 -6 24 2 53 18 68 39 169 84 163 74 -3 -4 -53
-31 -111 -60 -93 -46 -126 -71 -94 -71 5 0 7 -5 4 -11 -12 -18 -13 -58 -2 -56
19 4 19 -34 0 -48 -11 -9 -13 -14 -5 -15 7 0 10 -5 6 -12 -5 -7 -1 -9 13 -6
12 3 20 0 20 -8 0 -7 -4 -11 -9 -8 -4 3 -8 0 -8 -6 0 -6 -6 -8 -12 -4 -7 4
-10 4 -6 -1 4 -4 3 -14 -3 -22 -9 -10 -8 -13 1 -13 10 0 10 -3 0 -15 -9 -10
-9 -15 -1 -15 6 0 11 -9 11 -20 0 -11 -6 -20 -12 -20 -10 0 -9 -3 1 -9 7 -5 9
-11 4 -14 -5 -3 -10 -19 -11 -36 -3 -35 11 -40 46 -15 13 9 26 14 29 10 3 -3
-12 -13 -33 -23 -49 -22 -49 -22 -42 -29 4 -3 17 -1 30 6 22 11 22 10 4 -4
-11 -9 -23 -16 -28 -16 -4 0 -8 -5 -8 -11 0 -6 7 -8 15 -5 38 15 47 15 18 0
l-31 -17 0 -88 c1 -61 4 -86 12 -82 7 4 7 2 -1 -8 -11 -14 -13 -64 -14 -359
-1 -203 2 -254 18 -272 8 -9 21 -14 29 -11 8 3 14 0 14 -7 0 -6 5 -8 11 -5 6
4 164 8 353 9 l342 1 57 34 c31 19 55 36 53 38 -1 2 -24 -6 -50 -18 -26 -11
-50 -19 -52 -16 -6 6 59 47 74 47 18 0 23 18 6 24 -9 4 -13 2 -8 -5 4 -7 1
-10 -7 -7 -8 3 -23 -3 -35 -14 -22 -20 -88 -43 -79 -27 4 5 12 9 19 9 7 0 23
9 35 19 12 11 32 26 44 35 12 9 -9 1 -48 -18 -38 -18 -81 -36 -95 -40 -14 -3
-8 2 14 13 21 10 41 23 45 29 3 6 33 27 66 47 65 40 37 39 -32 -1 -23 -13 -48
-24 -55 -24 -7 1 9 12 35 26 60 31 57 42 -2 13 -24 -11 -45 -18 -48 -15 -4 3
-12 -2 -20 -12 -8 -9 -11 -11 -7 -3 5 10 1 12 -17 7 -26 -8 91 57 159 88 23
11 40 21 38 23 -2 2 -34 -10 -71 -26 -37 -17 -70 -31 -73 -31 -12 0 22 30 41
35 34 10 178 78 173 82 -2 2 -39 -12 -82 -32 -43 -20 -97 -41 -121 -47 -24 -6
-43 -14 -43 -18 0 -4 -12 -12 -27 -19 -26 -10 -25 -9 7 18 49 42 107 71 128
65 12 -4 13 -3 5 3 -9 6 -4 14 18 27 17 10 28 20 26 22 -6 6 -81 -28 -85 -39
-2 -4 -7 -5 -12 -2 -4 3 -25 -2 -45 -11 -23 -9 -41 -12 -47 -6 -6 6 7 16 34
27 24 10 37 20 30 22 -7 3 -42 -9 -79 -26 -36 -17 -67 -30 -69 -28 -9 9 125
66 152 65 17 -1 37 3 45 7 12 8 12 6 0 -8 -10 -13 5 -9 50 13 35 16 69 30 76
30 6 0 15 5 19 12 5 7 2 9 -7 6 -8 -3 -37 -15 -65 -26 -34 -14 -55 -17 -65
-11 -12 8 -12 10 1 8 21 -3 94 34 98 49 1 9 -7 8 -29 -4 -17 -8 -50 -22 -73
-31 -114 -42 -124 -34 -21 16 68 34 85 48 38 31 -26 -9 -27 -9 -9 5 11 8 24
15 30 15 5 0 7 2 4 5 -2 3 -36 -6 -73 -20 -38 -13 -71 -23 -73 -21 -2 2 27 19
63 36 47 22 63 35 54 40 -7 5 -24 3 -40 -5 -14 -8 -29 -11 -33 -8 -7 7 58 38
100 47 16 4 40 16 54 27 l25 19 -28 -10 c-16 -5 -36 -14 -45 -19 -9 -4 -33
-11 -52 -14 l-35 -6 30 16 c27 15 28 17 10 23 -11 4 -36 6 -55 3 l-35 -4 35
14 c19 8 47 19 63 25 15 6 27 13 27 16 0 4 -50 -6 -87 -18 -41 -13 -24 2 31
28 62 29 86 53 30 30 -20 -8 -38 -13 -41 -10 -2 2 -43 -9 -91 -25 -105 -36
-97 -24 13 18 148 56 160 62 140 62 -11 0 -47 -10 -79 -24 -33 -13 -61 -23
-63 -21 -5 5 39 32 65 40 36 12 20 17 -19 6 -31 -9 -32 -8 -14 5 11 8 25 18
30 22 22 18 65 43 72 43 5 0 19 -10 33 -22 30 -28 97 -78 103 -78 3 0 22 -16
43 -35 l38 -35 -2 -188 c-4 -255 -9 -343 -19 -352 -4 -5 -28 -10 -53 -12 -25
-2 -51 -8 -59 -12 -10 -6 -12 -5 -7 2 12 19 -7 14 -37 -11 l-28 -22 34 0 c20
0 33 3 31 6 -2 4 11 10 29 13 66 13 97 15 97 5 0 -17 21 2 31 28 5 13 12 140
15 281 4 212 3 262 -9 285 -16 31 -66 77 -84 77 -6 0 -20 10 -30 23 -10 13
-24 22 -31 19 -6 -2 -15 5 -19 15 -3 10 -20 32 -37 48 -67 66 -77 89 -75 168
1 39 1 420 0 845 -1 556 -4 772 -12 772 -8 0 -8 4 -1 13 7 8 11 103 11 270 0
218 -2 257 -14 257 -11 0 -15 -13 -16 -47z m-9 -1033 c0 -11 -59 -44 -66 -37
-3 2 10 14 28 26 38 24 38 24 38 11z m0 -38 c0 -4 -5 -13 -12 -20 -9 -9 -9
-12 1 -12 26 0 -3 -22 -67 -51 -37 -17 -80 -37 -95 -46 -16 -8 -31 -13 -33
-10 -6 5 133 91 151 93 6 1 16 2 23 3 7 0 11 5 7 10 -3 5 -1 12 5 16 6 4 8 11
5 16 -4 5 -1 9 4 9 6 0 11 -4 11 -8z m-39 -15 c-6 -8 -7 -18 -3 -22 4 -5 1 -5
-6 -1 -7 4 -29 0 -48 -9 -20 -9 -38 -15 -40 -12 -3 2 19 16 48 30 63 31 64 31
49 14z m-181 -50 c0 -2 -10 -12 -22 -23 l-23 -19 19 23 c18 21 26 27 26 19z
m70 -1 c0 -3 -4 -8 -10 -11 -5 -3 -10 -1 -10 4 0 6 5 11 10 11 6 0 10 -2 10
-4z m-144 -15 c-4 -5 -1 -11 6 -13 6 -2 -4 -14 -23 -25 -19 -12 -49 -38 -68
-57 -19 -19 -38 -33 -42 -31 -4 3 -30 -11 -59 -30 -29 -19 -64 -38 -79 -42
-14 -3 -46 -20 -71 -36 -37 -25 -41 -26 -25 -8 11 13 40 35 65 49 25 14 59 37
75 52 17 15 41 33 55 40 16 9 20 15 12 18 -10 3 -8 8 5 18 25 19 41 17 17 -2
-17 -14 -17 -15 -1 -10 12 4 16 2 11 -5 -4 -7 -1 -10 7 -7 8 3 13 11 11 18 -3
13 20 33 72 62 36 20 39 21 32 9z m279 -19 c0 -9 -4 -23 -8 -30 -6 -8 -3 -10
7 -6 31 12 15 -7 -17 -21 -18 -7 -55 -33 -82 -57 l-49 -43 27 37 c16 20 39 43
51 52 13 8 34 31 46 50 25 41 27 43 25 18z m-185 3 c0 -2 -10 -9 -22 -15 -22
-11 -22 -10 -4 4 21 17 26 19 26 11z m123 -20 c-3 -9 -8 -14 -10 -11 -3 3 -2
9 2 15 9 16 15 13 8 -4z m-208 -57 c-67 -35 -102 -44 -83 -21 6 8 17 12 25 9
8 -3 16 1 19 9 4 8 16 15 28 15 11 0 28 5 36 10 8 5 20 10 25 9 6 0 -17 -14
-50 -31z m75 18 c0 -8 -101 -68 -106 -63 -3 2 19 19 48 36 56 32 58 33 58 27z
m50 -21 c0 -3 -15 -14 -32 -25 -36 -22 -34 -25 5 -11 20 8 25 7 23 -6 -1 -8
-11 -20 -21 -25 -12 -7 -16 -7 -11 0 12 20 -29 19 -64 -1 -30 -17 -32 -17 -19
-3 9 10 38 31 65 46 55 32 54 32 54 25z m150 -9 c0 -2 -7 -7 -16 -10 -8 -3
-12 -2 -9 4 6 10 25 14 25 6z m-6 -51 c-10 -8 -27 -15 -38 -15 -10 0 -48 -22
-85 -48 -75 -55 -141 -96 -141 -88 0 3 26 24 58 46 31 22 75 54 97 70 22 16
45 29 51 30 7 0 24 7 40 15 33 17 46 11 18 -10z m-319 5 c-3 -5 -12 -10 -18
-10 -7 0 -6 4 3 10 19 12 23 12 15 0z m-76 -3 c-2 -1 -13 -9 -24 -17 -19 -14
-19 -14 -6 3 7 9 18 17 24 17 6 0 8 -1 6 -3z m-255 -72 c-10 -8 -23 -14 -29
-14 -5 -1 1 8 15 19 14 10 27 17 29 14 3 -2 -4 -11 -15 -19z m656 -29 c0 -14
-13 -21 -64 -37 -33 -10 -32 -8 14 25 41 29 50 31 50 12z m-290 -16 c0 -5 -5
-10 -11 -10 -5 0 -7 5 -4 10 3 6 8 10 11 10 2 0 4 -4 4 -10z m130 -10 c-14
-11 -29 -20 -35 -20 -5 0 1 9 15 20 14 11 30 20 35 20 6 0 -1 -9 -15 -20z
m-450 -10 c-33 -26 -49 -26 -19 0 13 10 29 19 34 19 6 1 -1 -8 -15 -19z m70
16 c0 -2 -7 -7 -16 -10 -8 -3 -12 -2 -9 4 6 10 25 14 25 6z m40 -30 c0 -2 -8
-10 -17 -17 -16 -13 -17 -12 -4 4 13 16 21 21 21 13z m489 -10 c-2 -2 -15 -9
-29 -15 -24 -11 -24 -11 -6 3 16 13 49 24 35 12z m1 -56 c0 -5 -5 -10 -11 -10
-5 0 -7 5 -4 10 3 6 8 10 11 10 2 0 4 -4 4 -10z m-600 -4 c0 -2 -8 -10 -17
-17 -16 -13 -17 -12 -4 4 13 16 21 21 21 13z m480 -1 c0 -2 -10 -9 -22 -15
-22 -11 -22 -10 -4 4 21 17 26 19 26 11z m60 -8 c0 -2 -10 -12 -22 -23 l-23
-19 19 23 c18 21 26 27 26 19z m-255 -17 c-3 -5 -12 -10 -18 -10 -7 0 -6 4 3
10 19 12 23 12 15 0z m-310 -20 c-3 -5 -12 -10 -18 -10 -7 0 -6 4 3 10 19 12
23 12 15 0z m245 -25 c0 -7 -101 -57 -106 -52 -4 4 86 56 99 57 4 0 7 -2 7 -5z
m90 -10 c0 -2 -10 -9 -22 -15 -22 -11 -22 -10 -4 4 21 17 26 19 26 11z m305
-95 c-3 -5 -11 -10 -16 -10 -6 0 -7 5 -4 10 3 6 11 10 16 10 6 0 7 -4 4 -10z
m-365 -65 c0 -2 -10 -9 -22 -15 -22 -11 -22 -10 -4 4 21 17 26 19 26 11z
m-290 -65 c-14 -11 -29 -20 -35 -20 -5 0 1 9 15 20 14 11 30 20 35 20 6 0 -1
-9 -15 -20z m655 -20 c-3 -5 -12 -10 -18 -10 -7 0 -6 4 3 10 19 12 23 12 15 0z
m-615 -25 c0 -2 -10 -9 -22 -15 -22 -11 -22 -10 -4 4 21 17 26 19 26 11z m34
-20 c-10 -8 -23 -15 -28 -15 -6 0 -1 7 10 15 10 8 23 15 28 15 6 0 1 -7 -10
-15z m56 -50 c0 -2 -13 -11 -30 -20 -38 -19 -40 -11 -2 9 31 17 32 18 32 11z
m474 -10 c-10 -8 -23 -15 -28 -15 -6 0 -1 7 10 15 10 8 23 15 28 15 6 0 1 -7
-10 -15z m-149 -74 c-16 -14 -105 -63 -105 -58 0 5 101 66 110 67 2 0 0 -4 -5
-9z m200 -181 c-3 -5 -12 -10 -18 -10 -7 0 -6 4 3 10 19 12 23 12 15 0z m-38
-16 c-3 -3 -12 -4 -19 -1 -8 3 -5 6 6 6 11 1 17 -2 13 -5z m43 -14 c-8 -5 -22
-10 -30 -10 -13 0 -13 1 0 10 8 5 22 10 30 10 13 0 13 -1 0 -10z m45 -38 l23
-19 -64 -31 c-70 -35 -85 -36 -28 -3 19 12 32 26 29 31 -3 6 1 13 10 16 13 6
14 8 3 15 -7 5 -9 9 -5 9 5 0 19 -8 32 -18z m-55 -2 c-8 -5 -19 -10 -25 -10
-5 0 -3 5 5 10 8 5 20 10 25 10 6 0 3 -5 -5 -10z m-50 -20 c-8 -5 -19 -10 -25
-10 -5 0 -3 5 5 10 8 5 20 10 25 10 6 0 3 -5 -5 -10z m45 -13 c-11 -8 -36 -17
-55 -20 l-35 -6 40 19 c48 22 79 26 50 7z m-145 -182 c0 -2 -10 -9 -22 -15
-22 -11 -22 -10 -4 4 21 17 26 19 26 11z m100 -9 c0 -2 -9 -6 -20 -9 -11 -3
-18 -1 -14 4 5 9 34 13 34 5z m100 -21 c0 -4 -67 -35 -76 -35 -2 0 -4 4 -4 10
0 5 15 14 33 19 39 11 47 12 47 6z m-65 -105 c-3 -5 -11 -10 -16 -10 -6 0 -7
5 -4 10 3 6 11 10 16 10 6 0 7 -4 4 -10z m-115 -144 c0 -2 -7 -7 -16 -10 -8
-3 -12 -2 -9 4 6 10 25 14 25 6z m-255 -116 c-3 -5 -12 -10 -18 -10 -7 0 -6 4
3 10 19 12 23 12 15 0z m315 -105 c0 -2 -13 -11 -30 -20 -38 -19 -40 -11 -2 9
31 17 32 18 32 11z"/>
<path d="M2537 4193 c-20 -14 -35 -28 -33 -30 4 -5 86 47 86 53 0 10 -18 2
-53 -23z"/>
<path d="M2408 4105 c-27 -20 -48 -38 -48 -41 0 -7 54 25 88 53 43 36 12 26
-40 -12z"/>
<path d="M7749 5363 c-13 -16 -12 -17 4 -4 9 7 17 15 17 17 0 8 -8 3 -21 -13z"/>
<path d="M7838 5350 c-27 -17 -50 -30 -52 -30 -2 0 -21 -16 -42 -36 -36 -35
-37 -36 -8 -21 32 16 154 106 154 113 0 6 -2 5 -52 -26z"/>
<path d="M6083 5344 c0 -22 16 -46 27 -39 5 3 29 -19 56 -47 26 -29 42 -44 36
-33 -6 11 -36 47 -65 79 -40 44 -54 55 -54 40z"/>
<path d="M5460 5277 c3 -3 23 -10 44 -16 22 -5 35 -6 30 -2 -9 9 -83 27 -74
18z"/>
<path d="M6128 5265 c6 -11 25 -33 44 -50 l33 -30 -35 40 c-19 22 -39 45 -44
50 -5 6 -4 1 2 -10z"/>
<path d="M5678 5223 c7 -3 16 -2 19 1 4 3 -2 6 -13 5 -11 0 -14 -3 -6 -6z"/>
<path d="M7750 5210 c-9 -6 -10 -10 -3 -10 6 0 15 5 18 10 8 12 4 12 -15 0z"/>
<path d="M2655 5170 c-3 -6 1 -7 9 -4 18 7 21 14 7 14 -6 0 -13 -4 -16 -10z"/>
<path d="M7913 5099 c-35 -22 -46 -37 -15 -20 22 13 58 40 52 41 -3 0 -20 -10
-37 -21z"/>
<path d="M2562 5064 c-40 -26 -71 -48 -69 -50 4 -4 84 45 132 80 40 30 8 14
-63 -30z"/>
<path d="M5668 5103 c6 -2 18 -2 25 0 6 3 1 5 -13 5 -14 0 -19 -2 -12 -5z"/>
<path d="M5730 5099 c33 -15 70 -19 70 -8 0 5 -6 9 -14 9 -7 0 -29 2 -47 5
-32 5 -33 5 -9 -6z"/>
<path d="M5710 5079 c0 -9 48 -24 55 -17 2 2 -9 9 -25 15 -17 6 -30 7 -30 2z"/>
<path d="M5815 5080 c3 -5 16 -10 28 -9 21 0 21 1 2 9 -28 12 -37 12 -30 0z"/>
<path d="M5560 5070 c8 -5 22 -9 30 -9 10 0 8 3 -5 9 -27 12 -43 12 -25 0z"/>
<path d="M7910 5070 c-9 -6 -10 -10 -3 -10 6 0 15 5 18 10 8 12 4 12 -15 0z"/>
<path d="M5621 5056 c2 -2 18 -6 34 -10 22 -5 26 -4 15 4 -14 9 -59 15 -49 6z"/>
<path d="M2444 5035 c-10 -8 -14 -14 -9 -14 6 0 19 6 29 14 11 8 15 15 10 15
-6 0 -19 -7 -30 -15z"/>
<path d="M2630 5029 l-25 -20 33 16 c17 8 32 18 32 20 0 10 -16 4 -40 -16z"/>
<path d="M5691 5036 c12 -10 60 -16 54 -6 -3 5 -18 10 -32 10 -15 0 -24 -2
-22 -4z"/>
<path d="M5768 5013 c7 -3 16 -2 19 1 4 3 -2 6 -13 5 -11 0 -14 -3 -6 -6z"/>
<path d="M5553 5003 c9 -2 15 -9 12 -14 -3 -5 1 -6 10 -2 13 5 14 7 3 14 -7 5
-20 8 -28 8 -11 -1 -10 -3 3 -6z"/>
<path d="M5845 4993 c6 -6 26 -13 45 -17 23 -4 31 -3 24 4 -5 5 -25 13 -44 16
-23 4 -32 3 -25 -3z"/>
<path d="M2469 4963 c-13 -17 -13 -17 6 -3 11 8 22 16 24 17 2 2 0 3 -6 3 -6
0 -17 -8 -24 -17z"/>
<path d="M5588 4973 c7 -3 16 -2 19 1 4 3 -2 6 -13 5 -11 0 -14 -3 -6 -6z"/>
<path d="M2734 4954 c-18 -14 -18 -15 4 -4 12 6 22 13 22 15 0 8 -5 6 -26 -11z"/>
<path d="M2764 4944 c-18 -14 -18 -15 4 -4 12 6 22 13 22 15 0 8 -5 6 -26 -11z"/>
<path d="M5555 4952 c6 -5 24 -12 40 -16 34 -7 15 7 -25 19 -16 5 -22 4 -15
-3z"/>
<path d="M5918 4948 c5 -5 16 -8 23 -6 8 3 3 7 -10 11 -17 4 -21 3 -13 -5z"/>
<path d="M2614 4918 c-41 -30 -52 -42 -29 -30 26 15 72 51 64 52 -4 0 -19 -10
-35 -22z"/>
<path d="M5508 4933 c7 -3 16 -2 19 1 4 3 -2 6 -13 5 -11 0 -14 -3 -6 -6z"/>
<path d="M2399 4913 c-13 -16 -12 -17 4 -4 9 7 17 15 17 17 0 8 -8 3 -21 -13z"/>
<path d="M2690 4920 c-13 -8 -13 -10 2 -10 9 0 20 5 23 10 8 13 -5 13 -25 0z"/>
<path d="M5550 4925 c67 -26 172 -56 182 -53 14 5 -112 45 -164 53 -18 3 -26
3 -18 0z"/>
<path d="M2483 4863 c-40 -31 -71 -58 -69 -61 3 -2 21 8 41 23 19 15 38 26 41
23 2 -3 -32 -34 -76 -68 -44 -35 -80 -65 -80 -67 0 -6 21 7 89 59 35 27 66 47
69 44 2 -3 -6 -14 -18 -24 -13 -10 -25 -27 -26 -36 -1 -10 1 -15 4 -11 4 4 7
12 7 17 0 6 6 13 14 16 9 3 11 0 6 -8 -6 -9 -4 -11 4 -6 7 5 10 11 7 14 -3 3
1 14 11 24 13 14 13 18 2 18 -8 0 2 14 21 31 27 24 29 27 7 13 -41 -25 -43
-11 -2 25 57 50 26 35 -52 -26z"/>
<path d="M2602 4874 c-29 -18 -57 -34 -62 -34 -6 0 -10 -7 -10 -16 0 -14 2
-15 18 -3 9 8 19 17 22 20 3 3 28 20 55 37 28 18 46 31 40 31 -5 0 -34 -16
-63 -35z"/>
<path d="M5530 4887 c17 -17 110 -47 148 -47 25 0 24 12 -1 16 -19 3 -120 31
-142 39 -18 7 -18 6 -5 -8z"/>
<path d="M2650 4862 c-30 -15 -63 -36 -72 -47 -10 -11 -17 -16 -18 -12 0 5
-21 -10 -47 -34 -27 -23 -67 -50 -90 -61 -23 -10 -45 -23 -48 -28 -10 -17 48
1 76 23 15 12 44 33 64 47 20 14 49 35 65 48 33 26 48 29 29 5 -13 -16 -12
-17 3 -4 10 7 16 17 13 21 -3 5 15 20 40 34 25 15 45 29 45 31 0 6 3 8 -60
-23z"/>
<path d="M5410 4880 c22 -15 139 -50 164 -49 11 0 -22 13 -74 29 -106 33 -111
34 -90 20z"/>
<path d="M6493 4810 c15 -18 26 -39 23 -46 -3 -8 0 -14 6 -14 7 0 6 -6 -2 -16
-8 -8 -9 -14 -4 -12 6 2 25 -14 43 -35 19 -21 36 -35 39 -32 3 3 -2 13 -10 22
-8 10 -19 25 -23 33 -8 13 -6 13 7 2 13 -10 17 -10 22 0 3 7 4 4 3 -7 -1 -11
4 -20 11 -20 17 0 15 14 -9 53 -14 24 -24 32 -37 28 -13 -4 -23 1 -32 19 -7
14 -25 32 -39 42 l-26 17 28 -34z"/>
<path d="M5620 4820 c8 -5 22 -9 30 -9 10 0 8 3 -5 9 -27 12 -43 12 -25 0z"/>
<path d="M2639 4803 c-13 -16 -12 -17 4 -4 16 13 21 21 13 21 -2 0 -10 -8 -17
-17z"/>
<path d="M2670 4799 c0 -3 -37 -28 -82 -55 -46 -26 -109 -69 -141 -94 -32 -25
-71 -52 -86 -61 -16 -8 -53 -37 -82 -63 -62 -56 -50 -51 38 13 34 25 81 59
105 74 24 15 65 44 93 63 28 20 57 33 67 31 10 -3 16 -1 13 4 -3 4 24 27 60
50 36 22 65 42 65 42 0 1 -11 2 -25 2 -14 0 -25 -3 -25 -6z"/>
<path d="M6546 4795 c4 -8 11 -15 16 -15 6 0 5 6 -2 15 -7 8 -14 15 -16 15 -2
0 -1 -7 2 -15z"/>
<path d="M5480 4790 c8 -5 22 -9 30 -9 10 0 8 3 -5 9 -27 12 -43 12 -25 0z"/>
<path d="M5545 4770 c3 -4 14 -10 25 -13 11 -3 18 -2 15 3 -3 4 -14 10 -25 13
-11 3 -18 2 -15 -3z"/>
<path d="M2555 4759 c-4 -5 -28 -23 -53 -39 -26 -16 -43 -30 -38 -30 10 0 126
69 126 76 0 9 -29 4 -35 -7z"/>
<path d="M6460 4746 c0 -2 8 -10 18 -17 15 -13 16 -12 3 4 -13 16 -21 21 -21
13z"/>
<path d="M2420 4730 c-8 -5 -12 -12 -9 -15 4 -3 12 1 19 10 14 17 11 19 -10 5z"/>
<path d="M2643 4728 c1 -8 -6 -12 -16 -10 -9 2 -16 -2 -15 -9 2 -6 -13 -21
-32 -32 l-35 -21 19 22 c39 45 5 24 -133 -83 -14 -11 -28 -20 -31 -19 -6 1
-160 -118 -160 -124 0 -2 7 1 15 8 9 7 18 10 21 8 6 -7 -44 -48 -58 -48 -5 0
-6 6 -2 13 5 8 2 7 -10 -2 -13 -11 -14 -16 -4 -22 7 -5 25 2 45 17 18 13 49
36 69 51 19 14 44 27 53 28 24 1 55 23 111 75 25 23 75 65 113 92 62 46 81 68
57 68 -5 0 -9 -6 -7 -12z m-123 -96 c-19 -15 -44 -36 -56 -48 -25 -24 -109
-70 -99 -54 4 6 23 22 43 35 21 14 57 41 82 60 25 19 50 34 55 34 6 0 -6 -12
-25 -27z m-200 -137 c-19 -14 -36 -25 -39 -25 -10 1 53 50 63 50 6 0 -5 -11
-24 -25z"/>
<path d="M5450 4706 c0 -2 7 -7 16 -10 8 -3 12 -2 9 4 -6 10 -25 14 -25 6z"/>
<path d="M5534 4701 c4 -5 31 -15 62 -22 30 -7 57 -16 60 -20 2 -5 12 -5 21
-2 10 4 -5 12 -41 23 -88 28 -108 32 -102 21z"/>
<path d="M6480 4700 c0 -6 9 -10 19 -10 11 0 22 -5 24 -10 3 -6 4 -5 3 1 -3
15 -46 32 -46 19z"/>
<path d="M2280 4689 c0 -5 5 -7 10 -4 6 3 10 8 10 11 0 2 -4 4 -10 4 -5 0 -10
-5 -10 -11z"/>
<path d="M2644 4665 c-50 -36 -71 -44 -58 -23 4 7 3 8 -5 4 -6 -4 -9 -11 -6
-16 3 -6 -16 -23 -44 -40 -27 -17 -52 -37 -55 -46 -3 -8 -10 -13 -16 -9 -12 7
-71 -35 -64 -46 2 -4 -21 -26 -52 -48 -31 -23 -64 -50 -72 -62 -8 -12 12 0 44
26 73 60 164 119 171 111 3 -3 14 -1 24 5 40 21 16 -1 -28 -27 -46 -26 -114
-75 -191 -139 -20 -17 -49 -39 -64 -48 -16 -10 -28 -22 -28 -28 0 -11 41 17
86 59 14 12 27 22 31 22 3 0 45 29 94 65 49 36 97 68 107 72 26 9 7 -7 -73
-62 -100 -70 -245 -187 -245 -198 0 -6 10 -1 23 11 13 12 32 22 42 22 19 0
105 46 105 56 0 4 -7 4 -15 0 -22 -8 -18 2 6 15 15 8 19 8 15 0 -10 -16 7 -14
30 4 14 11 16 15 4 15 -11 0 -9 6 7 19 12 10 19 22 15 26 -4 3 -2 6 3 5 19 -4
38 0 32 7 -7 6 50 53 65 53 10 0 -57 -66 -88 -86 -28 -19 -26 -31 3 -16 15 9
119 87 161 123 15 13 24 8 14 -7 -9 -14 -150 -118 -180 -134 -13 -6 -21 -14
-19 -17 7 -7 63 25 115 65 23 18 42 30 42 25 -1 -10 -82 -72 -140 -105 -25
-15 -61 -41 -80 -58 -32 -29 -32 -30 -6 -15 16 10 45 27 65 38 20 11 57 37 83
56 26 20 64 47 84 61 20 14 49 37 65 53 27 27 46 36 33 16 -13 -21 30 8 80 55
27 25 44 46 37 46 -6 0 -11 -4 -11 -8 0 -5 -20 -19 -45 -31 -25 -12 -43 -26
-40 -31 3 -5 0 -12 -6 -16 -8 -4 -9 -3 -5 4 13 22 -9 12 -42 -18 -18 -16 -36
-30 -39 -30 -12 0 22 33 86 82 76 59 93 74 71 63 -8 -4 -1 4 15 19 35 29 26
35 -13 7 -34 -23 -92 -53 -92 -47 0 3 20 17 44 31 23 14 51 34 61 45 10 11 25
20 34 21 10 0 11 2 4 6 -7 2 -40 -13 -74 -33 -34 -21 -76 -39 -93 -40 -45 -3
-46 -3 -43 -14 1 -6 -14 -20 -33 -32 -33 -20 -32 -19 11 24 37 36 53 45 77 43
17 -1 29 2 26 6 -2 4 5 13 17 19 11 7 18 14 15 17 -3 4 0 13 7 21 15 19 -30
-4 -109 -54 -30 -19 -54 -33 -54 -30 0 2 29 26 65 52 59 44 71 54 62 54 -2 0
-26 -16 -53 -35z m-89 -85 c-7 -11 -65 -43 -65 -36 0 4 62 45 68 46 2 0 0 -5
-3 -10z m-105 -65 c-7 -8 -18 -15 -24 -15 -6 0 -2 7 8 15 25 19 32 19 16 0z"/>
<path d="M5430 4686 c0 -2 7 -7 16 -10 8 -3 12 -2 9 4 -6 10 -25 14 -25 6z"/>
<path d="M5490 4680 c0 -5 10 -10 23 -10 18 0 19 2 7 10 -19 13 -30 13 -30 0z"/>
<path d="M2295 4654 c-19 -15 -22 -21 -9 -15 18 9 52 41 43 41 -2 0 -17 -12
-34 -26z"/>
<path d="M2609 4663 c-13 -16 -12 -17 4 -4 16 13 21 21 13 21 -2 0 -10 -8 -17
-17z"/>
<path d="M6496 4657 c3 -10 9 -15 12 -12 3 3 0 11 -7 18 -10 9 -11 8 -5 -6z"/>
<path d="M2300 4613 c-35 -37 -37 -41 -10 -18 19 17 40 35 45 41 6 6 17 13 25
17 13 5 13 6 0 6 -9 1 -36 -20 -60 -46z"/>
<path d="M5455 4651 c11 -5 40 -11 65 -15 45 -6 45 -6 15 9 -16 8 -46 14 -65
14 -28 0 -31 -2 -15 -8z"/>
<path d="M6470 4643 c0 -6 7 -17 16 -24 19 -15 47 -21 38 -8 -3 5 -9 7 -14 4
-5 -3 -16 5 -24 17 -9 12 -16 17 -16 11z"/>
<path d="M6520 4586 c0 -2 8 -10 18 -17 15 -13 16 -12 3 4 -13 16 -21 21 -21
13z"/>
<path d="M6710 4583 c0 -6 8 -17 18 -24 16 -13 16 -13 2 6 -8 11 -16 22 -17
24 -2 2 -3 0 -3 -6z"/>
<path d="M5720 4570 c8 -5 22 -9 30 -9 10 0 8 3 -5 9 -27 12 -43 12 -25 0z"/>
<path d="M2771 4519 c-18 -11 -31 -23 -28 -26 6 -5 67 34 67 43 0 6 -3 5 -39
-17z"/>
<path d="M2838 4533 c7 -3 16 -2 19 1 4 3 -2 6 -13 5 -11 0 -14 -3 -6 -6z"/>
<path d="M5510 4534 c0 -7 52 -25 57 -20 2 2 -10 8 -26 14 -17 6 -31 9 -31 6z"/>
<path d="M6725 4491 c19 -22 55 -46 55 -38 0 3 -17 17 -37 33 -31 23 -34 24
-18 5z"/>
<path d="M2339 4474 l-24 -26 32 19 c18 10 33 21 33 26 0 14 -17 7 -41 -19z"/>
<path d="M2207 4473 c-4 -3 -7 -11 -7 -17 0 -6 5 -5 12 2 6 6 9 14 7 17 -3 3
-9 2 -12 -2z"/>
<path d="M6711 4465 c0 -5 6 -21 14 -35 8 -14 14 -20 14 -15 0 6 -6 21 -14 35
-8 14 -14 21 -14 15z"/>
<path d="M2635 4415 c-22 -13 -37 -25 -33 -25 9 0 78 41 78 46 0 6 -3 5 -45
-21z"/>
<path d="M2216 4364 c-23 -23 -20 -30 4 -9 11 10 20 20 20 22 0 7 -9 2 -24
-13z"/>
<path d="M2760 4325 c-30 -19 -57 -30 -60 -25 -3 5 -17 0 -30 -12 -20 -16 -21
-19 -5 -13 11 4 29 8 41 9 20 3 138 77 119 75 -6 0 -35 -16 -65 -34z"/>
<path d="M5670 4340 c8 -5 22 -9 30 -9 10 0 8 3 -5 9 -27 12 -43 12 -25 0z"/>
<path d="M2385 4316 c-11 -8 -40 -26 -63 -41 -24 -14 -42 -28 -40 -31 6 -6 71
29 109 59 35 27 30 37 -6 13z"/>
<path d="M2457 4254 c-22 -14 -37 -28 -34 -30 5 -6 87 43 87 51 0 10 -16 3
-53 -21z"/>
<path d="M2242 4240 c-12 -10 -28 -20 -35 -23 -6 -2 -8 -8 -4 -13 4 -4 22 6
40 24 35 35 35 42 -1 12z"/>
<path d="M2228 4200 c-27 -17 -48 -32 -48 -35 0 -9 76 33 89 49 18 22 13 20
-41 -14z"/>
<path d="M2295 4220 c-3 -5 -2 -10 4 -10 5 0 13 5 16 10 3 6 2 10 -4 10 -5 0
-13 -4 -16 -10z"/>
<path d="M2380 4170 c-9 -6 -10 -10 -3 -10 6 0 15 5 18 10 8 12 4 12 -15 0z"/>
<path d="M2210 4160 c-8 -5 -12 -12 -9 -15 4 -3 12 1 19 10 14 17 11 19 -10 5z"/>
<path d="M2314 4125 c-10 -8 -14 -15 -8 -15 6 0 17 7 24 15 16 19 9 19 -16 0z"/>
<path d="M7455 3959 c-16 -10 -25 -19 -20 -19 6 0 24 9 40 20 17 11 26 20 20
19 -5 0 -23 -9 -40 -20z"/>
<path d="M7140 3914 c0 -6 7 -19 15 -30 8 -10 14 -14 14 -9 0 6 -6 19 -14 29
-8 11 -15 15 -15 10z"/>
<path d="M7293 3903 c4 -3 2 -12 -4 -20 -9 -10 -8 -13 3 -13 7 0 14 9 15 20 1
11 -3 20 -9 20 -6 0 -8 -3 -5 -7z"/>
<path d="M7350 3870 c-9 -6 -10 -10 -3 -10 6 0 15 5 18 10 8 12 4 12 -15 0z"/>
<path d="M7535 3790 c-3 -5 -2 -10 4 -10 5 0 13 5 16 10 3 6 2 10 -4 10 -5 0
-13 -4 -16 -10z"/>
<path d="M7400 3763 l-25 -15 25 6 c14 3 28 6 33 6 4 0 7 5 7 10 0 13 -9 11
-40 -7z"/>
<path d="M7434 3721 c-17 -10 -40 -21 -50 -24 -18 -4 -18 -5 1 -6 19 -1 85 33
85 44 0 7 -2 7 -36 -14z"/>
<path d="M7454 3685 c-10 -8 -14 -15 -8 -15 6 0 17 7 24 15 16 19 9 19 -16 0z"/>
<path d="M7143 3643 c-13 -2 -23 -8 -23 -12 0 -11 49 -1 56 10 3 5 2 8 -3 8
-4 -1 -18 -4 -30 -6z"/>
<path d="M7190 3630 c0 -5 7 -7 15 -4 8 4 15 8 15 10 0 2 -7 4 -15 4 -8 0 -15
-4 -15 -10z"/>
<path d="M7185 3520 c-3 -5 -2 -10 4 -10 5 0 13 5 16 10 3 6 2 10 -4 10 -5 0
-13 -4 -16 -10z"/>
<path d="M7190 3483 c-13 -15 -12 -16 4 -10 10 4 20 7 22 7 2 0 4 5 4 10 0 15
-13 12 -30 -7z"/>
<path d="M7500 3485 c-14 -8 -20 -14 -14 -15 5 0 19 7 30 15 24 18 16 19 -16
0z"/>
<path d="M7530 3449 c-19 -10 -29 -19 -22 -19 15 0 72 28 72 35 0 9 -14 4 -50
-16z"/>
<path d="M7480 3450 c-8 -5 -10 -10 -5 -10 6 0 17 5 25 10 8 5 11 10 5 10 -5
0 -17 -5 -25 -10z"/>
<path d="M7550 3400 c-19 -11 -30 -19 -25 -19 6 0 26 8 45 19 19 11 31 19 25
19 -5 0 -26 -8 -45 -19z"/>
<path d="M7219 3373 c-13 -15 -12 -15 9 -4 23 12 28 21 13 21 -5 0 -15 -7 -22
-17z"/>
<path d="M7100 3359 c0 -5 9 -9 20 -9 11 0 20 2 20 4 0 2 -9 6 -20 9 -11 3
-20 1 -20 -4z"/>
<path d="M7480 3350 c-9 -6 -10 -10 -3 -10 6 0 15 5 18 10 8 12 4 12 -15 0z"/>
<path d="M7505 3310 c-3 -5 -1 -10 4 -10 6 0 11 5 11 10 0 6 -2 10 -4 10 -3 0
-8 -4 -11 -10z"/>
<path d="M7146 3294 c10 -8 13 -13 7 -9 -7 3 -13 2 -13 -3 0 -5 -10 -13 -22
-17 -23 -6 -23 -6 4 -16 19 -7 33 -7 45 1 16 10 16 11 -4 7 -13 -3 -23 -1 -23
4 0 5 7 9 15 9 8 0 15 9 15 20 0 14 -7 20 -22 20 -21 0 -21 0 -2 -16z"/>
<path d="M7520 3255 c-14 -8 -20 -14 -15 -14 6 0 21 6 35 14 14 8 21 14 15 14
-5 0 -21 -6 -35 -14z"/>
<path d="M7200 3250 c-13 -8 -13 -10 2 -10 9 0 20 5 23 10 8 13 -5 13 -25 0z"/>
<path d="M7594 3214 c-18 -14 -18 -15 4 -4 12 6 22 13 22 15 0 8 -5 6 -26 -11z"/>
<path d="M7570 3175 c-14 -8 -20 -14 -15 -14 6 0 21 6 35 14 14 8 21 14 15 14
-5 0 -21 -6 -35 -14z"/>
<path d="M7425 3090 c-3 -6 1 -7 9 -4 18 7 21 14 7 14 -6 0 -13 -4 -16 -10z"/>
<path d="M7485 3060 c-3 -6 1 -7 9 -4 18 7 21 14 7 14 -6 0 -13 -4 -16 -10z"/>
<path d="M7740 3060 c-8 -5 -10 -10 -5 -10 6 0 17 5 25 10 8 5 11 10 5 10 -5
0 -17 -5 -25 -10z"/>
<path d="M7268 3043 c7 -3 16 -2 19 1 4 3 -2 6 -13 5 -11 0 -14 -3 -6 -6z"/>
<path d="M7353 3010 c-34 -14 -28 -21 7 -9 17 6 30 13 30 15 0 6 -12 4 -37 -6z"/>
<path d="M7644 2964 c-18 -14 -18 -15 4 -4 12 6 22 13 22 15 0 8 -5 6 -26 -11z"/>
<path d="M7600 2940 c-9 -6 -10 -10 -3 -10 6 0 15 5 18 10 8 12 4 12 -15 0z"/>
<path d="M7365 2933 c-11 -3 -24 -10 -30 -15 -7 -7 -2 -8 15 -3 52 15 64 30
15 18z"/>
<path d="M3000 2900 c-9 -6 -10 -10 -3 -10 6 0 15 5 18 10 8 12 4 12 -15 0z"/>
<path d="M3271 2864 c0 -11 3 -14 6 -6 3 7 2 16 -1 19 -3 4 -6 -2 -5 -13z"/>
<path d="M7447 2840 c-62 -30 -88 -48 -47 -32 62 24 120 52 120 57 0 9 -13 4
-73 -25z"/>
<path d="M3065 2850 c-3 -6 1 -7 9 -4 18 7 21 14 7 14 -6 0 -13 -4 -16 -10z"/>
<path d="M7470 2820 c-8 -5 -10 -10 -5 -10 6 0 17 5 25 10 8 5 11 10 5 10 -5
0 -17 -5 -25 -10z"/>
<path d="M2996 2801 c-4 -5 3 -7 14 -4 23 6 26 13 6 13 -8 0 -17 -4 -20 -9z"/>
<path d="M7425 2800 c-16 -7 -17 -9 -3 -9 9 -1 20 4 23 9 7 11 7 11 -20 0z"/>
<path d="M7465 2745 c-27 -13 -44 -24 -37 -24 14 -1 92 37 92 44 0 6 4 8 -55
-20z"/>
<path d="M3070 2720 c-9 -6 -10 -10 -3 -10 6 0 15 5 18 10 8 12 4 12 -15 0z"/>
<path d="M7298 2703 c6 -2 18 -2 25 0 6 3 1 5 -13 5 -14 0 -19 -2 -12 -5z"/>
<path d="M7440 2670 c-18 -12 -2 -12 25 0 13 6 15 9 5 9 -8 0 -22 -4 -30 -9z"/>
<path d="M7445 2575 c-22 -7 -31 -13 -20 -14 11 0 34 6 50 14 38 17 22 17 -30
0z"/>
<path d="M7505 2540 c3 -5 11 -10 16 -10 6 0 7 5 4 10 -3 6 -11 10 -16 10 -6
0 -7 -4 -4 -10z"/>
<path d="M7405 2519 c-51 -24 -35 -24 35 1 35 12 46 19 30 18 -14 0 -43 -8
-65 -19z"/>
<path d="M7560 2530 c-8 -5 -10 -10 -5 -10 6 0 17 5 25 10 8 5 11 10 5 10 -5
0 -17 -5 -25 -10z"/>
<path d="M7380 2480 c-8 -5 -10 -10 -5 -10 6 0 17 5 25 10 8 5 11 10 5 10 -5
0 -17 -5 -25 -10z"/>
<path d="M7455 2471 c-22 -11 -36 -20 -32 -20 12 -1 77 27 77 33 0 8 0 8 -45
-13z"/>
<path d="M7515 2470 c-19 -8 -19 -9 2 -9 12 -1 25 4 28 9 7 12 -2 12 -30 0z"/>
<path d="M7595 2352 c-27 -2 -54 -7 -58 -11 -4 -4 7 -6 24 -3 19 3 34 0 39 -8
7 -11 11 -10 24 2 9 9 24 14 36 11 11 -3 20 -3 20 0 0 8 -34 12 -85 9z"/>
</g>
</svg>
